<?xml version="1.0" encoding="UTF-8"?>
<!DOCTYPE svg PUBLIC "-//W3C//DTD SVG 1.1//EN" "http://www.w3.org/Graphics/SVG/1.1/DTD/svg11.dtd">
<!-- Creator: CorelDRAW -->
<svg xmlns="http://www.w3.org/2000/svg" xml:space="preserve" width="38px" height="38px" shape-rendering="geometricPrecision" text-rendering="geometricPrecision" image-rendering="optimizeQuality" fill-rule="evenodd" clip-rule="evenodd"
viewBox="0 0 52.4802 52.2126"
 xmlns:xlink="http://www.w3.org/1999/xlink">
 <g id="Ebene_x0020_1">
  <metadata id="CorelCorpID_0Corel-Layer"/>
  <rect fill="none" x="0.255369" y="0.187427" width="52.0251" height="52.0251"/>
  <circle fill="#E4003A" cx="24.689" cy="47.4717" r="4.51858"/>
  <path fill="none" fill-rule="nonzero" stroke="#333333" stroke-width="3.27997" d="M1.63998 29.9989l0 -28.3589 49.2002 0 0 28.3589 -9.84009 0 -13.2832 8.54703 2.21323 -8.54703 -28.2902 0zm0 -14.1795m24.6001 -14.1794m24.6001 14.1794m-4.92004 14.1795m-11.5618 4.27351m-5.53499 0m-13.0383 -4.27351"/>
  <line fill="none" stroke="#999999" stroke-width="2.8114" x1="6.52798" y1="7.80463" x2="45.3295" y2= "7.80463" />
  <line fill="none" stroke="#999999" stroke-width="2.8114" x1="6.64737" y1="13.1916" x2="17.4215" y2= "13.1916" />
  <line fill="none" stroke="#999999" stroke-width="2.8114" x1="6.64737" y1="18.2647" x2="17.4215" y2= "18.2647" />
  <line fill="none" stroke="#999999" stroke-width="2.8114" x1="6.64737" y1="23.3378" x2="17.4215" y2= "23.3378" />
  <line fill="none" stroke="#999999" stroke-width="2.8114" x1="22.8568" y1="13.1916" x2="45.1231" y2= "13.1916" />
  <line fill="none" stroke="#999999" stroke-width="2.8114" x1="22.8568" y1="18.2647" x2="45.1231" y2= "18.2647" />
  <line fill="none" stroke="#999999" stroke-width="2.8114" x1="22.8568" y1="23.3378" x2="45.1231" y2= "23.3378" />
 </g>
</svg>
