<?xml version="1.0" encoding="UTF-8"?>
<!DOCTYPE svg PUBLIC "-//W3C//DTD SVG 1.1//EN" "http://www.w3.org/Graphics/SVG/1.1/DTD/svg11.dtd">
<!-- Creator: CorelDRAW -->
<svg xmlns="http://www.w3.org/2000/svg" xml:space="preserve" width="38px" height="38px" shape-rendering="geometricPrecision" text-rendering="geometricPrecision" image-rendering="optimizeQuality" fill-rule="evenodd" clip-rule="evenodd"
viewBox="0 0 1199.71 1199.71"
 xmlns:xlink="http://www.w3.org/1999/xlink">
 <g id="Ebene_x0020_1">
  <metadata id="CorelCorpID_0Corel-Layer"/>
  <rect fill="none" width="1199.71" height="1199.71"/>
  <circle fill="#E4003A" cx="1091.76" cy="1097.7" r="102.017"/>
  <circle fill="#E4003A" cx="106.321" cy="1097.7" r="102.017"/>
  <circle fill="#E4003A" cx="1091.76" cy="104.731" r="102.017"/>
  <circle fill="#E4003A" cx="106.321" cy="104.731" r="102.017"/>
  <g>
   <path fill="#7F7F7F" fill-rule="nonzero" d="M234.155 104.736l195.636 -97.8159 0 195.636 -195.636 -97.8202zm536.707 37.745l-343.638 -0.00648317 0 -75.477 343.638 0.00648317 0 75.477zm193.069 -37.7385l-195.636 97.8159 0.00216106 -195.636 195.634 97.8202z"/>
  </g>
  <g>
   <path fill="#7F7F7F" fill-rule="nonzero" d="M106.32 964.745l-97.8159 -195.636 195.636 0 -97.8202 195.636zm37.745 -536.707l-0.00648317 343.638 -75.477 0 0.00648317 -343.638 75.477 0zm-37.7385 -193.069l97.8159 195.636 -195.636 -0.00216106 97.8202 -195.634z"/>
  </g>
  <g>
   <path fill="#7F7F7F" fill-rule="nonzero" d="M1091.76 964.745l-97.8159 -195.636 195.636 0 -97.8202 195.636zm37.745 -536.707l-0.00648317 343.638 -75.477 0 0.00648317 -343.638 75.477 0zm-37.7385 -193.069l97.8159 195.636 -195.636 -0.00216106 97.8202 -195.634z"/>
  </g>
  <g>
   <path fill="#7F7F7F" fill-rule="nonzero" d="M341.842 857.868l69.1732 -207.515 138.342 138.346 -207.515 69.1689zm406.19 -352.81l-242.974 242.97 -53.3737 -53.3737 242.974 -242.97 53.3737 53.3737zm109.842 -163.214l-69.1732 207.515 -138.342 -138.346 207.515 -69.1689z"/>
  </g>
  <g>
   <path fill="#7F7F7F" fill-rule="nonzero" d="M857.87 857.87l-207.515 -69.1732 138.346 -138.342 69.1689 207.515zm-352.81 -406.19l242.97 242.974 -53.3737 53.3737 -242.97 -242.974 53.3737 -53.3737zm-163.214 -109.842l207.515 69.1732 -138.346 138.342 -69.1689 -207.515z"/>
  </g>
  <g>
   <path fill="#7F7F7F" fill-rule="nonzero" d="M234.155 1097.69l195.636 -97.8159 0 195.636 -195.636 -97.8202zm536.707 37.745l-343.638 -0.00648317 0 -75.477 343.638 0.00648317 0 75.477zm193.069 -37.7385l-195.636 97.8159 0.00216106 -195.636 195.634 97.8202z"/>
  </g>
 </g>
</svg>
