<?xml version="1.0" encoding="UTF-8"?>
<!DOCTYPE svg PUBLIC "-//W3C//DTD SVG 1.1//EN" "http://www.w3.org/Graphics/SVG/1.1/DTD/svg11.dtd">
<!-- Creator: CorelDRAW -->
<svg xmlns="http://www.w3.org/2000/svg" xml:space="preserve" width="38px" height="38px" shape-rendering="geometricPrecision" text-rendering="geometricPrecision" image-rendering="optimizeQuality" fill-rule="evenodd" clip-rule="evenodd"
viewBox="0 0 10.3618 10.4522"
 xmlns:xlink="http://www.w3.org/1999/xlink">
 <g id="Ebene_x0020_1">
  <metadata id="CorelCorpID_0Corel-Layer"/>
  <circle fill="#E4003A" cx="0.890808" cy="5.22612" r="0.890816"/>
  <circle fill="#333333" cx="9.47101" cy="5.22612" r="0.890816"/>
  <circle fill="#333333" cx="9.47101" cy="9.56142" r="0.890816"/>
  <circle fill="#333333" cx="9.47101" cy="0.890816" r="0.890816"/>
  <g>
   <path fill="#7F7F7F" fill-rule="nonzero" d="M6.52918 8.44409l-4.49968 -2.27356 0.29668 -0.588228 4.49968 2.27356 -0.29668 0.588228zm1.65244 0.465854l-1.90916 -0.00803879 0.770101 -1.52411 1.13905 1.53214z"/>
  </g>
  <g>
   <path fill="#7F7F7F" fill-rule="nonzero" d="M6.82586 2.59638l-4.49968 2.27356 -0.29668 -0.588228 4.49968 -2.27356 0.29668 0.588228zm1.35576 -1.05408l-1.13905 1.53214 -0.770101 -1.52411 1.90916 -0.00803879z"/>
  </g>
  <g>
   <path fill="#7F7F7F" fill-rule="nonzero" d="M6.42465 5.55594l-4.04661 0 0 -0.659634 4.04661 0 0 0.659634zm1.68733 -0.329817l-1.70977 0.854886 0 -1.70977 1.70977 0.854886z"/>
  </g>
 </g>
</svg>
