<?xml version="1.0" encoding="UTF-8"?>
<!DOCTYPE svg PUBLIC "-//W3C//DTD SVG 1.1//EN" "http://www.w3.org/Graphics/SVG/1.1/DTD/svg11.dtd">
<!-- Creator: CorelDRAW -->
<svg xmlns="http://www.w3.org/2000/svg" xml:space="preserve" width="38px" height="38px" shape-rendering="geometricPrecision" text-rendering="geometricPrecision" image-rendering="optimizeQuality" fill-rule="evenodd" clip-rule="evenodd"
viewBox="0 0 22.0172 21.6584"
 xmlns:xlink="http://www.w3.org/1999/xlink">
 <g id="Ebene_x0020_1">
  <metadata id="CorelCorpID_0Corel-Layer"/>
  <rect fill="none" x="0.153557" width="21.6584" height="21.6584"/>
  <rect fill="#7F7F7F" x="11.5821" y="5.2894" width="1.74702" height="4.4004"/>
  <rect fill="#7F7F7F" x="15.7956" y="15.0818" width="1.74702" height="4.4004"/>
  <rect fill="#7F7F7F" x="2.64807" y="5.2894" width="2.02363" height="4.4004"/>
  <rect fill="#7F7F7F" x="0.857944" y="15.0676" width="2.02363" height="4.4004"/>
  <rect fill="#7F7F7F" x="5.45002" y="15.1454" width="4.04725" height="4.4004"/>
  <rect fill="#7F7F7F" x="6.00323" y="5.2894" width="3.49404" height="4.4004"/>
  <polygon fill="none" stroke="#333333" stroke-width="1.1704" points="0.585201,5.2894 14.8781,5.2894 16.5598,7.51051 18.4707,5.2894 21.432,5.2894 21.432,9.6898 18.4707,9.6898 16.5598,7.51051 14.8017,9.6898 0.585201,9.6898 "/>
  <path fill="#E4003A" fill-rule="nonzero" d="M1.45922 2.30238l4.40138 0.0916815 -2.16989 3.22945 -2.23149 -3.32113zm2.20067 0.0458798m1.11574 1.66057m-2.20067 -0.0458798"/>
  <path fill="#E4003A" fill-rule="nonzero" d="M10.1982 2.30238l4.40138 0.0916815 -2.16989 3.22945 -2.23149 -3.32113zm2.20067 0.0458798m1.11574 1.66057m-2.20067 -0.0458798"/>
  <polygon fill="none" stroke="#333333" stroke-width="1.1704" points="0.65328,15.1245 10.6146,15.1245 12.3269,17.3456 14.2727,15.1245 19.1484,15.1454 19.1484,19.5458 14.2727,19.5249 12.3269,17.3456 10.5368,19.5249 0.65328,19.5249 "/>
  <path fill="#E4003A" fill-rule="nonzero" d="M14.522 12.3787l4.40138 0.0916815 -2.16989 3.22945 -2.23149 -3.32113zm2.20067 0.0458798m1.11574 1.66057m-2.20067 -0.0458798"/>
 </g>
</svg>
