<?xml version="1.0" encoding="UTF-8"?>
<!DOCTYPE svg PUBLIC "-//W3C//DTD SVG 1.1//EN" "http://www.w3.org/Graphics/SVG/1.1/DTD/svg11.dtd">
<!-- Creator: CorelDRAW -->
<svg xmlns="http://www.w3.org/2000/svg" xml:space="preserve" width="38px" height="38px" shape-rendering="geometricPrecision" text-rendering="geometricPrecision" image-rendering="optimizeQuality" fill-rule="evenodd" clip-rule="evenodd"
viewBox="0 0 21.9307 21.9307"
 xmlns:xlink="http://www.w3.org/1999/xlink">
 <g id="Ebene_x0020_1">
  <metadata id="CorelCorpID_0Corel-Layer"/>
  <rect fill="none" width="21.9307" height="21.9307"/>
  <circle fill="none" stroke="#7F7F7F" stroke-width="2.22976" cx="10.9654" cy="10.9654" r="9.68642"/>
  <path fill="#E4003A" fill-rule="nonzero" d="M10.7043 6.6012c-0.44762,0 -0.870352,0.0559377 -1.26824,0.167852 -0.397845,0.111875 -0.839262,0.292172 -1.32413,0.540849l-0.783325 -2.10746c0.484912,-0.310857 1.05685,-0.550172 1.71582,-0.718025 0.658966,-0.167852 1.30549,-0.251798 1.93961,-0.251798 0.795729,0 1.45161,0.105673 1.96758,0.317059 0.516001,0.211386 0.923208,0.47867 1.22158,0.801971 0.298413,0.323261 0.506678,0.677612 0.624795,1.06305 0.118117,0.38544 0.177175,0.752196 0.177175,1.10034 0,0.348149 -0.0528563,0.668289 -0.15853,0.960461 -0.105673,0.292211 -0.239355,0.562616 -0.400966,0.811294 -0.16165,0.248678 -0.348149,0.484912 -0.559495,0.708702 -0.211386,0.22379 -0.41653,0.435176 -0.615472,0.634118 -0.149207,0.149207 -0.304615,0.307736 -0.466266,0.475589 -0.161611,0.167852 -0.307697,0.345028 -0.438257,0.531526 -0.130561,0.186498 -0.239355,0.38232 -0.326382,0.587464 -0.0870273,0.205144 -0.130561,0.413409 -0.130561,0.624795 0,0.0497355 0,0.124319 0,0.22379 0,0.0994711 0.00624163,0.186498 0.0186459,0.261082l-2.46181 0c-0.024848,-0.124319 -0.0404126,-0.264203 -0.0466147,-0.419611 -0.00620213,-0.155409 -0.00932294,-0.28909 -0.00932294,-0.400966 0,-0.348149 0.0434939,-0.662087 0.130561,-0.941854 0.0870273,-0.279728 0.202023,-0.540849 0.345028,-0.783285 0.142965,-0.242476 0.307697,-0.469386 0.494195,-0.680733 0.186538,-0.211386 0.379238,-0.41653 0.57818,-0.615472 0.285969,-0.285969 0.547051,-0.568818 0.783285,-0.848585 0.236234,-0.279728 0.354351,-0.599908 0.354351,-0.960461 0,-0.298413 -0.114996,-0.553293 -0.345028,-0.764639 -0.229992,-0.211386 -0.568818,-0.317059 -1.0164,-0.317059zm1.73442 9.38101c0,0.547051 -0.177175,0.969784 -0.531526,1.2682 -0.354351,0.298413 -0.755316,0.44758 -1.2029,0.44758 -0.44762,0 -0.848585,-0.149167 -1.20294,-0.44758 -0.354351,-0.298413 -0.531526,-0.721145 -0.531526,-1.2682 0,-0.547091 0.177175,-0.969823 0.531526,-1.26824 0.354351,-0.298374 0.755316,-0.44758 1.20294,-0.44758 0.44758,0 0.848546,0.149207 1.2029,0.44758 0.354351,0.298413 0.531526,0.721145 0.531526,1.26824z"/>
 </g>
</svg>
