<?xml version="1.0" encoding="UTF-8"?>
<!DOCTYPE svg PUBLIC "-//W3C//DTD SVG 1.1//EN" "http://www.w3.org/Graphics/SVG/1.1/DTD/svg11.dtd">
<!-- Creator: CorelDRAW -->
<svg xmlns="http://www.w3.org/2000/svg" xml:space="preserve" width="38px" height="38px" shape-rendering="geometricPrecision" text-rendering="geometricPrecision" image-rendering="optimizeQuality" fill-rule="evenodd" clip-rule="evenodd"
viewBox="0 0 31.7244 31.2073"
 xmlns:xlink="http://www.w3.org/1999/xlink">
 <g id="Ebene_x0020_1">
  <metadata id="CorelCorpID_0Corel-Layer"/>
  <rect fill="#7F7F7F" x="27.5328" y="0.9467" width="1.17937" height="6.34049"/>
  <rect fill="none" x="0.221258" width="31.2073" height="31.2073"/>
  <circle fill="#E4003A" cx="4.99157" cy="26.5167" r="2.71048"/>
  <circle fill="#E4003A" cx="7.70204" cy="26.5167" r="2.71048"/>
  <circle fill="#E4003A" cx="19.0695" cy="26.5167" r="2.71048"/>
  <circle fill="#E4003A" cx="13.123" cy="26.5167" r="2.71048"/>
  <path fill="#E4003A" fill-rule="nonzero" d="M5.86076 12.5782l6.3419 0.132103 -3.12657 4.65328 -3.21533 -4.78539zm3.17092 0.0661077m1.60766 2.39269m-3.17092 -0.0661077"/>
  <path fill="#E4003A" fill-rule="nonzero" d="M9.21106 12.6443l6.3419 0.132103 -3.12657 4.65328 -3.21533 -4.78539zm3.17092 0.0661077m1.60766 2.39269m-3.17092 -0.0661077"/>
  <path fill="#E4003A" fill-rule="nonzero" d="M16.3839 12.7104l6.3419 0.132103 -3.12657 4.65328 -3.21533 -4.78539zm3.17092 0.0661077m1.60766 2.39269m-3.17092 -0.0661077"/>
  <rect fill="#7F7F7F" x="3.81558" y="0.875758" width="2.91582" height="6.34049"/>
  <rect fill="#7F7F7F" x="8.64999" y="0.875758" width="5.03453" height="6.34049"/>
  <rect fill="#7F7F7F" x="17.6605" y="0.875758" width="2.35874" height="6.34049"/>
  <polygon fill="none" stroke="#333333" stroke-width="1.68642" points="0.84321,0.875758 21.4377,0.875758 23.8608,4.07613 26.6143,0.875758 30.8812,0.875758 30.8812,7.21625 26.6143,7.21625 23.8608,4.07613 21.3276,7.21625 0.84321,7.21625 "/>
  <rect fill="none" stroke="black" stroke-width="1.68642" x="1.08459" y="11.299" width="29.4496" height="18.9821"/>
  <rect fill="#E4003A" x="15.2389" y="18.3509" width="4.40112" height="4.07183"/>
  <rect fill="#E4003A" x="24.4018" y="18.3509" width="4.40112" height="4.07183"/>
 </g>
</svg>
