<?xml version="1.0" encoding="UTF-8"?>
<!DOCTYPE svg PUBLIC "-//W3C//DTD SVG 1.1//EN" "http://www.w3.org/Graphics/SVG/1.1/DTD/svg11.dtd">
<!-- Creator: CorelDRAW -->
<svg xmlns="http://www.w3.org/2000/svg" xml:space="preserve" width="38px" height="38px" shape-rendering="geometricPrecision" text-rendering="geometricPrecision" image-rendering="optimizeQuality" fill-rule="evenodd" clip-rule="evenodd"
viewBox="0 0 12.8262 12.7608"
 xmlns:xlink="http://www.w3.org/1999/xlink">
 <g id="Ebene_x0020_1">
  <metadata id="CorelCorpID_0Corel-Layer"/>
  <rect fill="none" x="0.0624124" y="0.0458073" width="12.715" height="12.715"/>
  <circle fill="#E4003A" cx="6.4131" cy="11.6021" r="1.10435"/>
  <g>
   <path fill="#7F7F7F" fill-rule="nonzero" d="M8.8922 10.2015l-0.981466 0.758293 -0.489038 -0.630583 0.981466 -0.758293 0.489038 0.630583zm1.37078 -1.56326l-1.00448 2.08297 -1.26458 -1.63678 2.26906 -0.446186z"/>
  </g>
  <g>
   <path fill="#7F7F7F" fill-rule="nonzero" d="M4.09125 10.373l0.486794 -0.636446 0.856 0.654357 -0.486794 0.636446 -0.856 -0.654357zm-1.38494 -1.56299l2.28065 0.436314 -1.26133 1.65 -1.01933 -2.08631z"/>
  </g>
  <path fill="none" fill-rule="nonzero" stroke="#333333" stroke-width="0.801627" d="M0.400813 4.47906l0 -4.07824 12.0246 0 0 4.07824 -2.40493 0 -3.00835 0.854695 0.302832 -0.854695 -6.91415 0zm0 -2.03913m6.01229 -2.03911m6.01229 2.03911m-1.20246 2.03913m-2.70666 0.427359m-1.35276 0m-3.30563 -0.427359"/>
  <line fill="none" stroke="#999999" stroke-width="0.687109" x1="1.59544" y1="1.90746" x2="11.0786" y2= "1.90746" />
  <line fill="none" stroke="#999999" stroke-width="0.687109" x1="1.62462" y1="3.22405" x2="4.25783" y2= "3.22405" />
  <line fill="none" stroke="#999999" stroke-width="0.687109" x1="5.58622" y1="3.22405" x2="11.0281" y2= "3.22405" />
  <circle fill="#333333" cx="1.1894" cy="7.2664" r="1.08121"/>
  <circle fill="#333333" cx="6.4131" cy="7.2664" r="1.08121"/>
  <circle fill="#333333" cx="9.16153" cy="7.2664" r="1.08121"/>
  <circle fill="#333333" cx="3.82499" cy="7.2664" r="1.08121"/>
  <circle fill="#333333" cx="11.6683" cy="7.2664" r="1.08121"/>
 </g>
</svg>
