<?xml version="1.0" encoding="UTF-8"?>
<svg xmlns="http://www.w3.org/2000/svg" xmlns:xlink="http://www.w3.org/1999/xlink" width="569.7638pt" height="226.7717pt" viewBox="0 0 569.7638 226.7717" version="1.1">
<g id="surface1">
<path style=" stroke:none;fill-rule:nonzero;fill:rgb(19.999695%,19.999695%,19.999695%);fill-opacity:1;" d="M 537.957031 132.558594 C 538.023438 148.570312 534.390625 160.980469 527.027344 169.707031 C 519.703125 178.472656 509.398438 182.835938 496.117188 182.835938 C 490.425781 182.835938 484.804688 181.847656 479.257812 179.839844 C 473.746094 177.828125 469.601562 175.132812 466.855469 171.71875 C 462.695312 175.207031 458.417969 177.941406 453.984375 179.875 C 449.554688 181.847656 443.410156 182.835938 435.554688 182.835938 C 426.5625 182.835938 418.890625 181.355469 412.503906 178.398438 C 406.117188 175.4375 401.167969 171.375 397.65625 166.253906 C 393.386719 170.996094 388.660156 174.828125 383.511719 177.75 C 378.324219 180.671875 372.144531 182.152344 364.9375 182.152344 L 319.589844 182.152344 L 319.503906 161.246094 L 370.769531 161.246094 C 375.703125 161.246094 379.496094 160.449219 382.070312 158.890625 C 384.679688 157.335938 386.457031 155.324219 387.394531 152.78125 C 388.332031 150.277344 388.851562 147.546875 388.878906 144.625 C 388.90625 141.703125 388.890625 137.984375 388.871094 133.429688 L 388.824219 121.554688 L 407.265625 121.554688 C 407.324219 135.632812 409.527344 145.875 413.878906 152.289062 C 418.269531 158.703125 425.453125 161.929688 435.433594 161.929688 C 443.589844 161.929688 449.730469 159.535156 453.808594 154.757812 C 457.925781 149.972656 459.945312 143.257812 459.910156 134.570312 L 459.859375 121.554688 L 478.300781 121.554688 L 478.367188 138.25 C 478.398438 145.722656 480.089844 151.53125 483.410156 155.703125 C 486.726562 159.839844 490.988281 161.929688 496.261719 161.929688 C 504.34375 161.929688 510.289062 159.5 514.027344 154.679688 C 517.804688 149.859375 519.667969 142.007812 519.625 131.117188 L 519.507812 102.429688 L 537.835938 102.429688 Z M 327.347656 182.152344 L 314.367188 182.152344 C 309.777344 182.152344 304.6875 180.9375 299.175781 178.472656 C 293.664062 176.042969 289.664062 172.703125 287.21875 168.453125 C 284.617188 172.855469 280.761719 176.234375 275.574219 178.585938 C 270.382812 180.976562 265.34375 182.152344 260.445312 182.152344 L 239.652344 182.152344 L 239.566406 161.246094 L 255.351562 161.246094 C 262.03125 161.246094 267.449219 158.929688 271.566406 154.339844 C 275.683594 149.746094 277.742188 143.21875 277.710938 134.796875 L 277.65625 121.324219 L 296.324219 121.324219 L 296.378906 134.796875 C 296.410156 142.804688 298.523438 149.214844 302.71875 154.035156 C 306.949219 158.855469 312.460938 161.246094 319.253906 161.246094 L 327.261719 161.246094 Z M 290.625 91.765625 L 274.15625 91.765625 L 274.089844 75.296875 L 290.558594 75.296875 Z M 290.625 91.765625 "/>
<path style=" stroke:none;fill-rule:nonzero;fill:rgb(88.999939%,0%,22.999573%);fill-opacity:1;" d="M 247.421875 182.152344 L 234.441406 182.152344 C 229.851562 182.152344 224.761719 180.9375 219.25 178.472656 C 213.738281 176.042969 209.742188 172.703125 207.292969 168.453125 C 204.695312 172.855469 200.835938 176.234375 195.648438 178.585938 C 190.460938 180.976562 185.417969 182.152344 180.523438 182.152344 L 159.726562 182.152344 L 159.644531 161.246094 L 175.429688 161.246094 C 182.105469 161.246094 187.523438 158.929688 191.640625 154.339844 C 195.757812 149.746094 197.820312 143.21875 197.785156 134.796875 L 197.730469 121.324219 L 216.398438 121.324219 L 216.453125 134.796875 C 216.488281 142.804688 218.601562 149.214844 222.792969 154.035156 C 227.027344 158.855469 232.535156 161.246094 239.328125 161.246094 L 247.335938 161.246094 Z M 187.757812 216.609375 L 171.289062 216.609375 L 171.222656 200.140625 L 187.691406 200.140625 Z M 217.582031 216.609375 L 201.113281 216.609375 L 201.046875 200.140625 L 217.515625 200.140625 Z M 217.582031 216.609375 "/>
<path style=" stroke:none;fill-rule:nonzero;fill:rgb(19.999695%,19.999695%,19.999695%);fill-opacity:1;" d="M 167.488281 182.152344 L 154.511719 182.152344 C 149.921875 182.152344 144.832031 180.9375 139.320312 178.472656 C 133.808594 176.042969 129.808594 172.703125 127.363281 168.453125 C 124.761719 172.855469 120.90625 176.234375 115.71875 178.585938 C 110.527344 180.976562 105.484375 182.152344 100.589844 182.152344 L 79.796875 182.152344 L 79.710938 161.246094 L 95.496094 161.246094 C 102.175781 161.246094 107.59375 158.929688 111.710938 154.339844 C 115.828125 149.746094 117.886719 143.21875 117.851562 134.796875 L 117.796875 121.324219 L 136.46875 121.324219 L 136.523438 134.796875 C 136.554688 142.804688 138.667969 149.214844 142.863281 154.035156 C 147.09375 158.855469 152.605469 161.246094 159.398438 161.246094 L 167.40625 161.246094 Z M 131.773438 217.632812 L 115.304688 217.632812 L 115.238281 201.164062 L 131.707031 201.164062 Z M 87.558594 182.152344 L 80.539062 182.152344 C 66.839844 182.152344 56.386719 177.484375 49.140625 168.1875 C 41.929688 158.890625 38.277344 146.75 38.214844 131.800781 L 37.71875 9.15625 L 56.160156 9.15625 L 56.652344 130.433594 C 56.667969 134.53125 57.023438 138.289062 57.683594 141.777344 C 58.382812 145.269531 59.648438 148.496094 61.519531 151.453125 C 63.390625 154.492188 65.714844 156.882812 68.492188 158.625 C 71.304688 160.371094 75.140625 161.246094 80.039062 161.246094 L 87.476562 161.246094 Z M 87.558594 182.152344 "/>
</g>
</svg>
