<?xml version="1.0" encoding="UTF-8" ?>
<!DOCTYPE svg PUBLIC "-//W3C//DTD SVG 1.1//EN" "http://www.w3.org/Graphics/SVG/1.1/DTD/svg11.dtd">
<svg width="1427pt" height="701pt" viewBox="0 0 1427 701" version="1.1" xmlns="http://www.w3.org/2000/svg">
<path fill="#fffefe" d=" M 0.00 0.00 L 126.56 0.00 C 96.80 1.72 67.70 13.53 45.43 33.39 C 18.62 56.70 1.95 91.07 0.00 126.53 L 0.00 0.00 Z" />
<path fill="#c61936" d=" M 126.56 0.00 L 141.47 0.00 C 169.10 1.55 196.19 11.76 217.76 29.13 C 243.45 49.42 261.21 79.47 266.54 111.78 C 271.93 142.75 265.76 175.53 249.66 202.50 C 235.87 225.83 214.87 244.83 190.23 256.12 C 163.75 268.39 133.21 271.69 104.75 265.17 C 74.20 258.44 46.33 240.48 27.42 215.58 C 11.08 194.37 1.50 168.15 0.00 141.44 L 0.00 126.53 C 1.95 91.07 18.62 56.70 45.43 33.39 C 67.70 13.53 96.80 1.72 126.56 0.00 Z" />
<path fill="#fffefe" d=" M 141.47 0.00 L 1427.00 0.00 L 1427.00 536.67 C 1417.46 535.98 1407.35 535.36 1398.42 539.46 C 1393.53 541.50 1389.48 545.03 1385.85 548.81 C 1384.76 544.63 1383.69 540.45 1382.51 536.30 C 1375.36 536.39 1368.20 536.05 1361.06 536.39 C 1359.13 536.25 1359.27 538.62 1359.23 539.91 C 1359.24 568.94 1359.23 597.97 1359.24 626.99 C 1359.23 632.81 1359.09 638.63 1359.52 644.44 C 1368.80 644.59 1378.08 644.68 1387.37 644.37 C 1387.73 629.93 1387.43 615.47 1387.53 601.02 C 1387.65 592.18 1386.59 582.83 1390.57 574.60 C 1393.51 568.03 1400.05 563.51 1407.11 562.52 C 1413.70 561.62 1420.39 562.41 1427.00 561.62 L 1427.00 701.00 L 0.00 701.00 L 0.00 141.44 C 1.50 168.15 11.08 194.37 27.42 215.58 C 46.33 240.48 74.20 258.44 104.75 265.17 C 133.21 271.69 163.75 268.39 190.23 256.12 C 214.87 244.83 235.87 225.83 249.66 202.50 C 265.76 175.53 271.93 142.75 266.54 111.78 C 261.21 79.47 243.45 49.42 217.76 29.13 C 196.19 11.76 169.10 1.55 141.47 0.00 Z" />
<path fill="#fffefe" d=" M 118.73 7.22 C 145.16 3.90 172.59 9.25 195.85 22.22 C 221.33 36.24 241.76 59.21 252.63 86.19 C 257.18 97.27 260.01 109.03 261.36 120.92 C 261.99 128.28 261.79 135.67 261.66 143.04 C 259.73 173.02 246.52 202.03 225.48 223.44 C 201.80 247.75 168.07 262.48 134.00 261.77 C 106.17 262.31 78.47 252.48 56.45 235.58 C 34.73 219.00 18.56 195.27 11.12 168.98 C 3.93 143.83 4.75 116.47 13.49 91.82 C 22.63 65.45 40.93 42.51 64.18 27.17 C 80.50 16.44 99.32 9.50 118.73 7.22 Z" />
<path fill="#c61936" d=" M 121.19 12.49 C 123.11 12.43 125.03 12.37 126.96 12.29 C 128.27 16.39 129.76 20.44 131.04 24.55 C 132.40 20.37 133.61 16.14 134.81 11.92 C 136.72 11.98 138.63 12.05 140.54 12.11 C 140.52 17.81 140.76 23.51 140.78 29.21 C 139.62 29.21 138.46 29.21 137.30 29.20 C 137.32 25.04 137.32 20.88 137.09 16.73 C 135.49 20.85 134.25 25.10 133.04 29.35 C 132.18 29.38 130.48 29.44 129.62 29.46 C 128.01 25.21 126.60 20.86 124.65 16.74 C 124.72 18.82 124.88 20.89 125.12 22.95 C 125.21 25.13 125.24 27.31 125.29 29.50 C 124.08 29.55 122.87 29.59 121.66 29.64 C 121.49 23.93 121.43 18.21 121.19 12.49 Z" />
<path fill="#c61936" d=" M 146.79 12.66 C 150.04 13.24 153.31 13.65 156.61 13.89 C 156.65 14.87 156.69 15.86 156.73 16.84 C 154.41 16.67 152.10 16.48 149.78 16.33 C 149.73 17.28 149.62 19.20 149.57 20.16 C 151.48 20.35 153.40 20.53 155.31 20.71 C 155.31 21.44 155.30 22.88 155.30 23.61 C 153.13 23.44 150.96 23.28 148.79 23.17 C 148.67 24.55 148.56 25.94 148.44 27.32 C 150.58 27.59 152.70 27.93 154.82 28.33 C 154.75 29.00 154.60 30.35 154.53 31.02 C 151.11 30.71 147.71 30.24 144.33 29.69 C 145.17 24.01 146.02 18.34 146.79 12.66 Z" />
<path fill="#c61936" d=" M 157.58 31.58 C 159.40 26.16 160.86 20.64 162.59 15.19 C 166.77 16.63 172.25 17.36 174.29 21.88 C 175.40 26.04 173.91 31.36 169.80 33.31 C 165.67 34.47 161.43 33.09 157.58 31.58 Z" />
<path fill="#c61936" d=" M 99.17 16.93 C 100.36 16.73 101.56 16.53 102.76 16.33 C 103.83 20.83 105.20 25.27 106.01 29.84 C 108.16 29.45 110.29 28.93 112.41 28.39 C 112.67 29.09 113.20 30.50 113.47 31.21 C 110.14 32.07 106.82 32.96 103.48 33.79 C 102.01 28.18 100.34 22.62 99.17 16.93 Z" />
<path fill="#fffefe" d=" M 165.05 19.25 C 166.42 19.64 168.01 19.73 169.02 20.87 C 172.30 23.55 170.68 29.54 166.66 30.52 C 165.11 30.75 163.55 30.38 162.02 30.20 C 163.01 26.55 164.17 22.94 165.05 19.25 Z" />
<path fill="#c61936" d=" M 85.97 21.61 C 87.16 21.43 88.35 21.26 89.55 21.09 C 91.15 25.27 92.86 29.43 94.25 33.69 C 96.35 33.11 98.39 32.35 100.40 31.52 C 100.75 32.19 101.44 33.52 101.78 34.19 C 98.57 35.50 95.34 36.77 92.07 37.92 C 90.06 32.48 87.68 27.17 85.97 21.61 Z" />
<path fill="#c61936" d=" M 173.94 37.65 C 175.60 31.94 178.32 26.61 180.68 21.17 C 181.49 21.57 183.12 22.36 183.93 22.76 C 181.76 27.69 179.86 32.73 177.58 37.60 C 176.36 37.70 175.15 37.72 173.94 37.65 Z" />
<path fill="#c61936" d=" M 72.14 28.87 C 75.24 27.36 78.08 25.08 81.49 24.31 C 81.78 24.76 82.36 25.66 82.64 26.11 C 80.98 27.58 78.95 28.53 77.16 29.82 C 77.51 30.90 77.90 31.97 78.32 33.02 C 80.26 32.17 82.17 31.26 84.09 30.35 C 84.37 31.02 84.92 32.37 85.20 33.04 C 83.50 33.93 81.81 34.82 80.11 35.70 C 80.73 37.02 81.36 38.33 81.98 39.66 C 84.14 38.53 86.31 37.42 88.52 36.39 C 88.61 37.43 88.64 38.48 88.62 39.53 C 85.94 41.23 83.05 42.57 80.20 43.95 C 77.50 38.93 74.77 33.93 72.14 28.87 Z" />
<path fill="#c61936" d=" M 188.41 27.53 C 192.69 26.32 196.69 28.48 199.79 31.24 C 197.90 34.44 195.31 31.27 192.96 30.57 C 188.38 29.65 184.78 35.38 186.69 39.34 C 187.85 41.68 190.66 42.14 192.79 43.19 C 192.37 45.09 191.20 46.16 189.32 45.11 C 186.61 43.94 184.00 42.05 182.71 39.32 C 181.20 34.69 183.97 29.30 188.41 27.53 Z" />
<path fill="#c61936" d=" M 64.12 33.85 C 65.19 33.27 66.26 32.69 67.33 32.12 C 70.34 36.60 73.90 40.69 76.80 45.22 C 76.75 46.83 74.91 47.42 73.98 48.47 C 69.98 46.49 66.03 44.40 61.92 42.66 C 64.10 45.95 66.52 49.07 68.85 52.24 C 67.88 52.85 66.89 53.42 65.87 53.96 C 62.12 49.57 58.84 44.77 55.57 40.00 C 56.76 39.35 57.93 38.63 59.20 38.11 C 63.52 39.35 67.29 41.99 71.39 43.77 C 68.89 40.52 66.51 37.18 64.12 33.85 Z" />
<path fill="#c61936" d=" M 64.33 62.36 C 80.07 46.90 101.07 37.01 122.98 34.56 C 135.74 33.73 148.75 33.92 161.09 37.65 C 184.70 44.13 205.60 59.73 218.67 80.41 C 229.05 96.57 234.53 115.81 234.32 135.01 C 234.45 140.12 233.52 145.16 233.23 150.25 L 232.82 150.88 C 228.98 175.44 215.12 198.19 195.45 213.33 C 182.31 223.65 166.48 230.32 150.04 233.17 C 131.89 235.82 113.00 233.89 96.02 226.80 C 72.13 217.01 52.37 197.64 42.19 173.91 C 38.26 164.75 35.66 155.02 34.55 145.12 C 34.06 138.39 34.15 131.62 34.41 124.88 C 36.49 101.35 47.33 78.75 64.33 62.36 Z" />
<path fill="#c61936" d=" M 191.54 46.00 C 196.63 42.60 202.07 39.76 207.21 36.43 C 208.34 37.22 209.46 38.02 210.58 38.81 C 208.81 44.76 207.17 50.76 205.27 56.67 C 204.29 55.90 203.30 55.14 202.32 54.37 C 202.54 52.89 202.76 51.40 202.99 49.92 C 201.39 48.72 199.79 47.52 198.21 46.31 C 195.94 47.74 193.41 48.58 191.54 46.00 Z" />
<path fill="#fffefe" d=" M 81.00 57.04 C 99.12 44.42 121.82 38.56 143.78 40.89 C 163.52 42.88 182.23 51.58 197.11 64.60 C 186.47 65.63 175.72 65.15 165.04 64.93 C 143.35 65.19 121.63 65.41 99.94 64.86 C 95.95 65.12 91.96 65.19 87.98 64.90 C 82.49 64.95 77.01 65.42 71.52 65.05 C 74.11 61.76 77.65 59.45 81.00 57.04 Z" />
<path fill="#fffefe" d=" M 200.92 44.24 C 202.73 43.16 204.54 42.08 206.35 40.99 C 205.66 43.06 204.97 45.13 204.27 47.19 C 203.14 46.21 202.03 45.23 200.92 44.24 Z" />
<path fill="#c61936" d=" M 43.14 52.20 C 45.71 49.95 47.94 47.04 51.23 45.82 C 53.83 45.23 55.31 48.10 56.59 49.86 C 56.32 50.42 55.77 51.52 55.50 52.08 C 58.68 52.86 61.73 54.09 64.73 55.41 C 63.78 56.26 62.86 57.15 61.82 57.89 C 58.77 57.59 55.78 54.51 52.83 56.68 C 54.52 58.49 56.26 60.25 58.00 62.01 C 57.10 62.89 56.20 63.77 55.30 64.65 C 51.31 60.44 47.01 56.53 43.14 52.20 Z" />
<path fill="#c61936" d=" M 218.81 45.87 C 219.59 46.80 220.40 47.71 220.97 48.79 C 217.91 52.35 214.24 55.33 211.11 58.82 C 212.66 60.27 214.22 61.73 215.78 63.18 C 214.97 63.92 214.15 64.66 213.33 65.39 C 211.07 62.84 208.69 60.40 206.28 57.98 C 210.50 53.99 214.70 49.98 218.81 45.87 Z" />
<path fill="#fffefe" d=" M 50.44 49.60 C 50.99 49.64 52.09 49.71 52.64 49.75 C 52.95 51.74 52.41 53.59 51.17 55.16 C 50.07 54.12 48.97 53.07 47.88 52.01 C 48.73 51.20 49.58 50.40 50.44 49.60 Z" />
<path fill="#c61936" d=" M 37.26 60.29 C 43.32 56.96 51.93 62.99 50.58 69.87 C 49.72 74.38 44.70 78.51 40.05 76.67 C 36.77 75.64 33.88 73.01 32.80 69.71 C 32.06 66.07 34.22 62.22 37.26 60.29 Z" />
<path fill="#fffefe" d=" M 37.71 63.27 C 40.94 62.85 44.50 63.40 46.38 66.39 C 48.98 68.92 46.48 73.69 43.03 73.43 C 39.71 73.09 36.10 70.52 36.08 66.91 C 36.47 65.63 37.13 64.46 37.71 63.27 Z" />
<path fill="#c61936" d=" M 221.43 74.91 C 220.22 69.44 225.83 64.57 231.06 65.12 C 235.73 64.81 238.46 69.35 239.95 73.12 C 239.29 73.48 237.96 74.20 237.30 74.56 C 236.27 72.77 235.80 70.31 233.81 69.31 C 229.98 66.96 224.32 70.76 224.77 75.15 C 225.54 77.52 227.22 79.45 228.20 81.73 C 224.17 82.56 222.12 78.13 221.43 74.91 Z" />
<path fill="#fffefe" d=" M 197.75 65.50 C 212.97 79.40 223.29 98.54 226.60 118.89 C 230.07 140.36 226.08 163.04 214.82 181.72 C 198.77 209.22 167.79 227.93 135.76 227.57 C 152.53 219.03 168.27 207.98 180.64 193.69 C 190.32 182.39 197.79 168.22 197.71 153.03 C 197.73 123.85 197.67 94.68 197.75 65.50 Z" />
<path fill="#fffefe" d=" M 42.39 153.19 C 35.51 121.80 46.60 87.36 70.29 65.71 C 70.47 94.16 70.29 122.61 70.38 151.05 C 70.48 169.65 80.34 186.87 93.35 199.61 C 104.52 211.24 118.19 220.11 132.39 227.59 C 116.15 227.90 100.07 222.78 86.16 214.59 C 63.93 201.32 47.57 178.59 42.39 153.19 Z" />
<path fill="#fffefe" d=" M 76.71 71.51 C 114.92 71.38 153.13 71.48 191.35 71.46 C 191.36 87.15 191.36 102.85 191.35 118.55 C 153.14 118.52 114.92 118.62 76.71 118.50 C 76.72 102.83 76.72 87.17 76.71 71.51 Z" />
<path fill="#c61936" d=" M 24.51 81.04 C 24.71 78.34 26.30 76.07 27.76 73.89 C 28.50 74.13 29.97 74.63 30.71 74.87 C 29.62 76.86 27.70 78.64 27.61 81.02 C 28.13 84.98 32.65 87.87 36.42 86.32 C 38.73 85.19 39.58 82.65 40.13 80.34 C 40.87 80.45 42.35 80.66 43.09 80.77 C 42.26 83.92 41.09 87.29 38.29 89.24 C 32.75 93.12 23.61 87.88 24.51 81.04 Z" />
<path fill="#c61936" d=" M 87.38 76.37 C 99.44 76.36 111.50 76.36 123.57 76.37 C 123.52 84.60 123.68 92.84 123.52 101.07 C 123.24 105.65 118.77 108.21 115.28 110.37 C 111.96 112.24 108.82 114.57 105.19 115.81 C 101.00 113.90 97.24 111.18 93.35 108.75 C 90.38 106.79 87.10 103.95 87.38 100.03 C 87.33 92.14 87.40 84.25 87.38 76.37 Z" />
<path fill="#c61936" d=" M 145.25 76.37 C 157.33 76.37 169.42 76.35 181.50 76.38 C 181.45 84.56 181.59 92.74 181.46 100.92 C 181.38 105.38 177.15 107.89 173.83 110.00 C 170.33 112.01 167.02 114.45 163.20 115.82 C 159.20 114.03 155.63 111.41 151.89 109.15 C 148.71 107.11 145.20 104.23 145.28 100.08 C 145.15 92.18 145.29 84.27 145.25 76.37 Z" />
<path fill="#c61936" d=" M 236.23 79.23 C 242.80 76.84 248.65 84.71 246.22 90.67 C 243.78 95.80 236.14 98.33 231.65 94.34 C 229.23 91.75 227.80 87.69 229.41 84.31 C 230.60 81.55 233.46 80.00 236.23 79.23 Z" />
<path fill="#fffefe" d=" M 92.50 81.53 C 101.14 81.53 109.78 81.52 118.41 81.53 C 118.41 83.61 118.41 85.68 118.40 87.76 C 109.77 87.74 101.13 87.76 92.50 87.75 C 92.50 85.67 92.50 83.60 92.50 81.53 Z" />
<path fill="#fffefe" d=" M 150.60 81.54 C 159.18 81.52 167.76 81.51 176.35 81.55 C 176.35 85.07 176.35 88.59 176.31 92.11 C 171.76 89.35 167.97 85.38 163.16 83.08 C 158.71 85.63 154.91 89.15 150.62 91.96 C 150.59 88.49 150.59 85.01 150.60 81.54 Z" />
<path fill="#fffefe" d=" M 232.26 85.76 C 234.65 84.27 237.12 82.12 240.15 82.61 C 242.62 83.37 244.72 86.47 243.10 88.90 C 241.40 91.81 237.88 92.60 234.76 92.84 C 232.39 91.17 231.86 88.47 232.26 85.76 Z" />
<path fill="#fffefe" d=" M 150.18 98.89 C 154.53 95.68 158.90 92.47 163.25 89.25 C 167.81 92.43 172.22 95.80 176.72 99.07 C 176.11 100.57 175.78 102.37 174.28 103.27 C 170.84 105.83 167.06 107.88 163.30 109.91 C 158.78 106.54 151.89 104.86 150.18 98.89 Z" />
<path fill="#fffefe" d=" M 92.49 93.27 C 101.14 93.27 109.78 93.25 118.43 93.29 C 118.03 96.58 119.70 101.07 116.33 103.23 C 112.81 105.66 109.24 108.29 105.17 109.68 C 100.80 107.27 96.16 104.86 92.76 101.12 C 92.28 98.54 92.54 95.88 92.49 93.27 Z" />
<path fill="#c61936" d=" M 234.06 101.57 C 239.73 100.01 245.29 97.84 251.16 97.16 C 251.27 98.21 251.38 99.26 251.49 100.31 C 247.03 101.69 242.53 102.91 238.06 104.26 C 238.53 106.33 239.07 108.38 239.64 110.42 C 238.95 110.69 237.57 111.23 236.89 111.50 C 235.91 108.20 234.95 104.89 234.06 101.57 Z" />
<path fill="#c61936" d=" M 31.86 99.22 C 32.47 99.48 33.67 100.00 34.28 100.27 C 33.98 103.58 32.69 106.71 31.99 109.95 C 26.33 108.77 20.68 107.35 15.26 105.35 C 15.50 104.59 15.97 103.06 16.21 102.30 C 20.89 102.92 25.31 104.76 29.90 105.79 C 30.55 103.60 31.20 101.41 31.86 99.22 Z" />
<path fill="#c61936" d=" M 237.32 112.93 C 242.98 112.36 248.55 111.22 254.18 110.39 C 254.30 111.31 254.55 113.15 254.67 114.06 C 249.95 114.75 245.23 115.50 240.56 116.47 C 240.94 118.49 241.32 120.50 241.69 122.51 C 240.98 122.74 239.55 123.21 238.84 123.44 C 238.18 119.96 237.56 116.47 237.32 112.93 Z" />
<path fill="#c61936" d=" M 28.48 111.46 C 29.20 111.53 30.64 111.66 31.36 111.73 C 30.78 115.09 30.30 118.46 29.83 121.84 C 24.15 121.26 18.53 120.14 12.88 119.33 C 13.04 118.09 13.20 116.86 13.36 115.63 C 17.99 116.44 22.63 117.24 27.31 117.81 C 27.66 115.68 28.07 113.57 28.48 111.46 Z" />
<path fill="#ea9b94" d=" M 11.93 123.63 C 17.70 124.17 23.59 123.83 29.24 125.28 C 23.66 125.22 18.10 124.71 12.53 124.40 C 12.47 125.18 12.36 126.74 12.30 127.52 C 17.95 127.70 23.59 128.01 29.20 128.76 C 23.42 129.11 17.68 128.29 11.94 127.74 C 11.94 126.37 11.94 125.00 11.93 123.63 Z" />
<path fill="#c61936" d=" M 12.53 124.40 C 18.10 124.71 23.66 125.22 29.24 125.28 L 29.51 125.28 C 29.40 126.44 29.30 127.60 29.20 128.76 C 23.59 128.01 17.95 127.70 12.30 127.52 C 12.36 126.74 12.47 125.18 12.53 124.40 Z" />
<path fill="#fffefe" d=" M 76.70 125.31 C 94.97 125.12 113.24 125.27 131.51 125.24 C 131.47 127.35 131.42 129.47 131.35 131.58 C 127.19 131.23 123.00 131.33 118.86 131.90 C 112.00 132.83 105.08 132.81 98.18 132.71 C 97.90 135.70 97.80 138.70 97.79 141.70 C 95.95 141.67 94.10 141.64 92.26 141.61 C 92.07 143.17 91.86 144.73 91.77 146.30 C 93.74 146.90 95.82 146.70 97.85 146.79 C 97.84 150.54 97.85 154.30 97.79 158.05 C 95.74 158.13 93.69 158.22 91.64 158.36 C 91.84 160.01 92.04 161.66 92.25 163.31 C 94.11 163.29 95.97 163.27 97.83 163.26 C 97.84 166.89 97.84 170.52 97.85 174.15 C 95.84 174.18 93.83 174.22 91.82 174.29 C 91.83 175.96 91.83 177.63 91.84 179.31 C 93.84 179.34 95.83 179.36 97.83 179.37 C 97.74 183.04 97.84 186.72 98.32 190.37 C 105.58 190.40 112.84 190.57 120.05 189.59 C 123.84 189.64 128.53 188.02 131.36 191.37 C 131.37 200.81 131.59 210.25 131.42 219.69 C 117.04 211.72 103.44 201.90 92.79 189.28 C 84.65 179.56 78.21 167.85 77.14 155.02 C 76.24 145.15 76.95 135.21 76.70 125.31 Z" />
<path fill="#fffefe" d=" M 136.73 125.33 C 154.93 125.09 173.14 125.30 191.35 125.22 C 191.35 134.49 191.37 143.76 191.36 153.03 C 191.07 165.22 185.62 176.70 178.21 186.16 C 168.28 198.70 155.50 208.69 141.84 216.87 C 140.21 217.79 138.49 218.55 136.78 219.30 C 136.63 210.07 136.90 200.83 136.63 191.60 C 137.62 190.74 138.42 189.26 139.94 189.38 C 144.28 189.28 148.64 189.47 152.93 190.14 C 158.52 190.54 164.12 190.30 169.71 190.40 C 170.28 186.75 170.25 183.05 170.18 179.36 C 172.25 179.36 174.32 179.35 176.39 179.34 C 176.37 177.63 176.37 175.92 176.36 174.21 C 174.30 174.20 172.24 174.19 170.18 174.18 C 170.19 170.55 170.19 166.91 170.19 163.28 C 172.24 163.27 174.30 163.27 176.35 163.26 C 176.37 161.57 176.38 159.88 176.40 158.19 C 174.36 158.17 172.33 158.16 170.29 158.15 C 170.16 154.34 170.17 150.54 170.19 146.73 C 172.26 146.71 174.32 146.70 176.39 146.67 C 176.37 145.01 176.36 143.34 176.34 141.68 C 174.30 141.67 172.26 141.66 170.22 141.66 C 170.22 138.68 170.18 135.69 169.91 132.71 C 163.05 132.81 156.16 132.84 149.35 131.89 C 145.17 131.33 140.94 131.23 136.73 131.56 C 136.74 129.48 136.73 127.41 136.73 125.33 Z" />
<path fill="#c61936" d=" M 238.65 125.45 C 244.46 124.42 250.38 124.59 256.26 124.45 C 256.32 127.86 256.42 131.27 256.49 134.68 C 255.76 134.68 254.31 134.68 253.58 134.69 C 253.48 132.56 253.38 130.43 253.30 128.31 C 252.04 128.32 250.77 128.34 249.52 128.36 C 249.52 130.39 249.51 132.42 249.50 134.45 C 248.80 134.46 247.40 134.49 246.70 134.50 C 246.61 132.51 246.51 130.52 246.41 128.53 C 244.95 128.52 243.49 128.52 242.04 128.52 C 242.09 130.80 242.18 133.09 242.25 135.38 C 241.55 135.40 240.15 135.44 239.44 135.46 C 239.35 132.11 239.12 128.77 238.65 125.45 Z" />
<path fill="#c61936" d=" M 11.69 132.24 C 12.69 132.20 13.69 132.15 14.69 132.11 C 14.70 134.23 14.70 136.35 14.70 138.48 C 16.07 138.51 17.43 138.54 18.79 138.57 C 18.71 136.47 18.65 134.38 18.63 132.28 C 19.33 132.41 20.73 132.67 21.43 132.80 C 21.68 134.71 21.63 136.64 21.69 138.56 C 23.21 138.45 24.72 138.35 26.24 138.24 C 26.27 135.90 26.30 133.55 26.42 131.22 C 26.98 131.40 28.09 131.78 28.64 131.96 C 29.56 135.32 29.28 138.86 28.79 142.27 C 23.22 142.21 17.66 142.33 12.09 142.43 C 11.98 139.03 11.82 135.64 11.69 132.24 Z" />
<path fill="#fffefe" d=" M 136.70 137.51 C 139.96 136.27 143.49 136.43 146.88 136.92 C 152.78 137.66 158.74 138.13 164.70 137.88 C 164.85 153.67 164.86 169.47 164.69 185.26 C 162.09 185.24 159.50 185.24 156.91 185.25 L 156.17 184.76 C 149.75 184.54 143.33 183.98 136.90 184.32 C 136.51 168.72 136.89 153.11 136.70 137.51 Z" />
<path fill="#fffefe" d=" M 103.32 137.86 C 112.74 139.05 122.18 135.21 131.48 137.34 C 131.45 153.03 131.46 168.73 131.48 184.42 C 124.67 184.02 117.81 184.26 111.05 185.15 C 108.48 185.23 105.90 185.25 103.33 185.28 C 103.16 169.48 103.17 153.67 103.32 137.86 Z" />
<path fill="#c61936" d=" M 241.11 140.18 C 245.41 136.76 253.24 138.25 255.30 143.59 C 256.33 146.90 255.64 150.42 254.86 153.71 C 253.75 153.59 252.65 153.47 251.55 153.35 C 252.34 151.00 253.36 148.50 252.58 146.02 C 251.13 141.62 244.12 140.85 241.81 144.89 C 241.18 146.31 241.15 147.89 240.89 149.40 C 242.36 149.49 243.84 149.57 245.31 149.66 C 245.36 148.81 245.48 147.12 245.53 146.28 C 246.28 146.36 247.79 146.52 248.55 146.61 C 248.29 148.95 248.02 151.29 247.74 153.63 C 244.59 153.38 241.45 152.97 238.33 152.55 C 238.26 148.35 237.59 143.27 241.11 140.18 Z" />
<path fill="#c61936" d=" M 109.40 144.40 C 114.91 144.28 120.41 143.81 125.91 143.39 C 125.76 144.64 125.61 145.89 125.46 147.14 C 120.12 147.54 114.77 147.70 109.42 147.71 C 109.41 146.61 109.40 145.50 109.40 144.40 Z" />
<path fill="#c61936" d=" M 142.42 143.36 C 147.85 143.90 153.30 144.26 158.77 144.40 C 158.73 145.49 158.69 146.59 158.65 147.69 C 153.18 147.63 147.64 147.83 142.25 146.74 C 142.30 145.61 142.36 144.48 142.42 143.36 Z" />
<path fill="#c61936" d=" M 11.99 147.36 C 17.97 147.60 23.99 147.38 29.92 148.38 C 30.11 149.89 30.29 151.40 30.46 152.91 C 26.38 154.48 22.41 156.31 18.51 158.29 C 22.87 158.36 27.23 158.31 31.60 158.38 C 32.01 159.90 32.41 161.43 32.79 162.97 C 27.44 165.67 22.02 168.24 16.61 170.84 C 16.49 169.52 16.37 168.20 16.26 166.88 C 20.22 165.10 24.18 163.32 28.12 161.51 C 23.65 161.26 19.16 161.34 14.67 161.33 C 14.50 159.68 14.32 158.04 14.16 156.40 C 18.12 154.63 22.08 152.84 26.16 151.35 C 21.67 150.96 17.17 150.68 12.66 150.76 C 12.50 149.91 12.16 148.21 11.99 147.36 Z" />
<path fill="#ea9b94" d=" M 109.37 153.82 C 115.05 153.85 120.71 153.34 126.39 153.10 C 126.15 154.40 125.91 155.71 125.66 157.02 C 125.64 156.18 125.60 154.49 125.58 153.65 C 120.27 154.31 114.94 154.64 109.59 154.69 C 109.60 155.41 109.61 156.85 109.62 157.56 C 112.79 157.55 115.96 157.60 119.12 157.49 C 115.78 157.80 112.42 157.90 109.07 157.98 C 109.17 156.59 109.27 155.21 109.37 153.82 Z" />
<path fill="#ea9b94" d=" M 141.66 153.15 C 147.34 153.31 153.01 153.85 158.69 153.81 C 158.79 155.18 158.88 156.56 158.97 157.94 C 154.28 157.90 149.58 157.81 144.93 157.20 C 149.45 157.45 153.97 157.53 158.50 157.62 C 158.53 156.89 158.59 155.42 158.62 154.69 C 153.33 154.64 148.04 154.34 142.79 153.68 C 142.65 154.53 142.38 156.23 142.25 157.07 C 142.04 155.76 141.85 154.45 141.66 153.15 Z" />
<path fill="#c61936" d=" M 109.59 154.69 C 114.94 154.64 120.27 154.31 125.58 153.65 C 125.60 154.49 125.64 156.18 125.66 157.02 C 123.48 157.16 121.31 157.38 119.12 157.49 C 115.96 157.60 112.79 157.55 109.62 157.56 C 109.61 156.85 109.60 155.41 109.59 154.69 Z" />
<path fill="#c61936" d=" M 142.79 153.68 C 148.04 154.34 153.33 154.64 158.62 154.69 C 158.59 155.42 158.53 156.89 158.50 157.62 C 153.97 157.53 149.45 157.45 144.93 157.20 C 144.26 157.17 142.92 157.11 142.25 157.07 C 142.38 156.23 142.65 154.53 142.79 153.68 Z" />
<path fill="#c61936" d=" M 234.55 165.33 C 235.49 162.20 236.27 159.03 237.01 155.85 C 242.68 156.84 248.17 158.62 253.79 159.86 C 252.99 163.18 252.13 166.49 251.27 169.79 C 250.57 169.66 249.18 169.39 248.48 169.26 C 249.00 167.00 249.48 164.74 249.88 162.46 C 248.56 162.40 247.24 162.35 245.92 162.32 C 245.44 164.81 245.80 168.43 242.03 167.55 C 242.39 165.26 242.86 163.00 243.37 160.75 C 241.89 160.60 240.41 160.45 238.93 160.31 C 238.43 162.43 237.88 164.54 237.30 166.64 C 236.38 166.20 235.47 165.76 234.55 165.33 Z" />
<path fill="#ea9b94" d=" M 109.17 163.95 C 114.90 163.79 120.63 163.66 126.34 163.20 C 126.13 164.61 125.91 166.02 125.69 167.42 C 120.20 167.55 114.71 167.94 109.23 168.21 C 109.20 166.79 109.18 165.37 109.17 163.95 Z" />
<path fill="#ea9b94" d=" M 141.65 163.23 C 147.43 163.63 153.23 163.80 159.03 163.93 C 159.08 165.24 158.98 166.54 158.74 167.83 L 158.16 168.23 C 153.20 167.90 148.21 167.87 143.26 167.31 C 141.24 167.20 142.13 164.55 141.65 163.23 Z" />
<path fill="#c61936" d=" M 110.00 164.83 C 115.31 164.03 120.71 164.07 126.06 163.58 C 125.80 164.25 125.27 165.60 125.01 166.27 C 119.94 167.85 114.52 167.25 109.29 167.38 C 109.47 166.74 109.82 165.47 110.00 164.83 Z" />
<path fill="#c61936" d=" M 142.25 163.58 C 147.61 164.16 153.08 163.89 158.37 165.00 C 158.26 165.46 158.04 166.39 157.93 166.85 C 153.13 167.89 147.81 167.45 143.01 166.28 C 142.82 165.60 142.44 164.25 142.25 163.58 Z" />
<path fill="#c61936" d=" M 109.40 174.22 C 114.92 174.39 120.41 173.74 125.90 173.28 C 125.74 174.55 125.59 175.83 125.43 177.11 C 120.10 177.50 114.76 177.67 109.41 177.72 C 109.41 176.55 109.40 175.38 109.40 174.22 Z" />
<path fill="#c61936" d=" M 142.36 173.29 C 147.81 173.79 153.27 174.38 158.76 174.22 C 158.73 175.38 158.70 176.54 158.68 177.70 C 153.20 177.60 147.67 177.77 142.26 176.73 C 142.29 175.58 142.32 174.43 142.36 173.29 Z" />
<path fill="#c61936" d=" M 231.06 176.14 C 233.77 178.86 235.02 182.66 237.57 185.50 C 239.27 186.73 241.24 187.51 243.11 188.47 C 242.61 189.56 242.12 190.64 241.61 191.73 C 239.52 190.69 237.49 189.49 235.23 188.84 C 231.46 189.05 227.71 189.61 223.92 189.57 C 224.61 188.41 225.37 187.31 226.19 186.25 C 228.50 185.48 230.99 185.71 233.38 185.52 C 232.07 183.31 230.71 181.12 229.35 178.93 C 229.77 178.24 230.63 176.84 231.06 176.14 Z" />
<path fill="#c61936" d=" M 26.67 185.13 C 28.57 179.83 36.47 177.17 40.73 181.28 C 42.88 183.06 43.71 185.84 44.00 188.52 C 43.28 188.85 42.56 189.19 41.84 189.53 C 41.13 186.31 39.35 183.51 36.09 182.49 C 34.03 183.44 31.25 183.87 30.27 186.20 C 28.53 189.07 31.06 191.97 32.15 194.58 C 31.42 194.67 29.95 194.83 29.22 194.92 C 27.37 192.02 25.74 188.66 26.67 185.13 Z" />
<path fill="#c61936" d=" M 216.31 201.03 C 218.71 197.18 221.32 193.46 224.02 189.81 C 226.76 191.43 224.70 193.83 223.84 195.89 C 227.61 198.35 231.42 200.78 234.86 203.70 C 234.35 204.33 233.32 205.59 232.81 206.22 C 229.28 204.13 226.12 201.44 222.57 199.39 C 220.68 198.26 220.00 200.88 218.90 201.90 C 218.25 201.68 216.96 201.25 216.31 201.03 Z" />
<path fill="#c61936" d=" M 40.45 193.68 C 46.14 190.34 52.80 196.37 52.21 202.25 C 51.03 206.64 46.61 210.40 41.89 209.72 C 38.59 209.73 36.21 206.73 35.13 203.90 C 33.43 199.76 36.66 195.24 40.45 193.68 Z" />
<path fill="#fffefe" d=" M 42.66 196.69 C 44.44 196.10 46.91 196.07 48.00 197.91 C 51.70 202.98 42.02 209.77 38.58 204.46 C 36.90 201.11 39.77 198.00 42.66 196.69 Z" />
<path fill="#c61936" d=" M 212.81 204.87 C 213.53 203.92 214.25 202.97 214.98 202.02 C 219.43 205.61 223.75 209.37 228.09 213.10 C 227.14 213.80 226.14 214.43 225.11 214.99 C 220.73 211.97 217.03 208.10 212.81 204.87 Z" />
<path fill="#c61936" d=" M 45.12 217.03 C 49.08 213.10 53.21 209.32 57.07 205.28 C 59.41 207.59 61.94 209.86 63.40 212.86 C 64.08 216.56 60.18 218.49 57.05 217.83 C 56.45 220.68 55.32 223.37 54.09 226.00 C 53.15 225.07 52.22 224.15 51.29 223.23 C 52.24 220.70 54.24 218.22 53.61 215.38 C 50.94 215.11 49.59 218.21 47.69 219.60 C 46.83 218.74 45.97 217.89 45.12 217.03 Z" />
<path fill="#c61936" d=" M 205.81 217.12 C 203.36 212.98 207.50 209.24 210.94 207.56 C 211.26 208.44 211.57 209.33 211.88 210.21 C 210.28 211.60 207.73 212.75 208.63 215.33 C 211.83 215.60 214.84 213.96 218.06 214.17 C 218.92 215.06 219.79 215.96 220.66 216.85 C 221.28 221.13 218.02 225.00 213.91 225.81 C 213.73 225.22 213.36 224.04 213.18 223.45 C 215.09 222.43 219.34 219.47 216.04 217.68 C 212.66 218.30 208.20 221.05 205.81 217.12 Z" />
<path fill="#fffefe" d=" M 54.89 212.02 C 55.99 211.55 56.95 209.96 58.26 210.57 C 59.41 211.58 59.51 213.14 59.82 214.53 C 58.45 214.54 57.08 214.53 55.71 214.49 C 55.51 213.87 55.09 212.64 54.89 212.02 Z" />
<path fill="#c61936" d=" M 67.49 216.00 C 68.64 216.65 69.79 217.31 70.94 217.97 C 70.51 222.31 69.57 226.59 69.27 230.94 C 71.51 227.97 73.62 224.91 75.90 221.97 C 76.85 222.61 77.80 223.26 78.74 223.90 C 75.51 228.35 72.20 232.75 68.96 237.19 C 67.78 236.44 66.60 235.68 65.42 234.92 C 66.13 230.60 66.84 226.28 67.53 221.96 C 65.16 224.95 62.94 228.05 60.61 231.06 C 59.68 230.43 58.76 229.81 57.84 229.18 C 60.96 224.72 64.26 220.38 67.49 216.00 Z" />
<path fill="#c61936" d=" M 191.81 223.10 C 195.08 220.79 198.46 217.17 202.88 218.58 C 203.27 219.17 204.04 220.36 204.43 220.95 C 204.38 222.31 204.33 223.67 204.29 225.03 C 206.46 226.01 208.70 226.95 210.62 228.39 C 211.51 229.83 209.55 230.57 208.92 231.59 C 206.37 229.99 203.80 228.21 200.71 227.93 C 201.60 230.39 202.99 232.61 204.39 234.81 C 203.70 235.24 202.33 236.10 201.65 236.53 C 198.29 232.11 194.89 227.72 191.81 223.10 Z" />
<path fill="#fffefe" d=" M 196.32 223.15 C 197.55 222.58 198.79 222.01 200.02 221.44 C 200.55 222.26 201.09 223.09 201.63 223.92 C 200.71 224.88 199.79 225.84 198.88 226.80 C 198.02 225.58 197.17 224.36 196.32 223.15 Z" />
<path fill="#c61936" d=" M 180.29 229.74 C 183.24 227.96 186.28 226.33 189.43 224.93 C 189.52 225.66 189.70 227.12 189.79 227.85 C 188.17 228.70 186.56 229.57 184.96 230.44 C 185.48 231.51 186.00 232.59 186.54 233.66 C 188.50 232.63 190.51 231.65 192.68 231.09 C 193.39 234.24 190.15 235.04 188.06 236.29 C 188.68 237.51 189.31 238.72 189.93 239.93 C 192.10 238.82 194.29 237.71 196.68 237.14 C 196.32 238.18 196.91 239.89 195.48 240.33 C 193.15 241.82 190.63 242.96 188.14 244.16 C 185.56 239.33 182.86 234.57 180.29 229.74 Z" />
<path fill="#c61936" d=" M 81.97 226.00 C 84.95 227.37 87.86 228.90 90.81 230.34 C 90.50 230.95 89.88 232.17 89.58 232.78 C 87.57 232.14 85.72 231.10 83.84 230.16 C 83.43 230.93 82.60 232.47 82.19 233.24 C 83.77 234.16 85.37 235.07 86.97 235.97 C 86.78 236.64 86.38 237.98 86.19 238.66 C 84.35 237.75 82.51 236.84 80.66 235.97 C 80.08 237.26 79.51 238.55 78.95 239.85 C 80.96 240.86 82.95 241.90 84.90 243.00 C 84.39 243.44 83.35 244.32 82.83 244.76 C 79.71 243.91 77.07 241.91 74.25 240.41 C 76.94 235.67 79.44 230.83 81.97 226.00 Z" />
<path fill="#c61936" d=" M 175.19 231.66 C 176.25 231.52 177.30 231.37 178.37 231.23 C 178.41 236.96 178.58 242.69 178.66 248.43 C 177.37 248.91 176.08 249.39 174.79 249.87 C 171.01 245.27 167.11 240.75 163.58 235.95 C 164.88 235.73 166.18 235.34 167.51 235.39 C 170.30 238.50 172.68 241.96 175.47 245.08 C 175.31 240.61 174.99 236.14 175.19 231.66 Z" />
<path fill="#c61936" d=" M 93.85 232.27 C 94.92 232.39 95.99 232.51 97.06 232.64 C 96.25 237.29 94.11 241.55 92.54 245.97 C 94.61 246.77 96.70 247.54 98.65 248.64 C 98.32 249.16 97.66 250.19 97.33 250.71 C 94.15 249.97 91.19 248.54 88.16 247.36 C 90.09 242.34 92.03 237.33 93.85 232.27 Z" />
<path fill="#c61936" d=" M 105.04 236.38 C 106.34 236.45 107.63 236.52 108.92 236.62 C 107.88 241.15 106.59 245.63 105.92 250.24 C 107.83 250.69 109.72 251.19 111.63 251.66 C 111.51 252.60 111.39 253.54 111.27 254.48 C 107.98 253.74 104.70 252.92 101.43 252.12 C 102.67 246.89 104.28 241.72 105.04 236.38 Z" />
<path fill="#c61936" d=" M 158.28 237.48 C 159.49 237.17 160.69 236.86 161.90 236.57 C 162.78 242.01 164.94 247.21 165.47 252.69 C 164.71 252.94 163.20 253.45 162.44 253.70 C 160.91 248.33 159.73 242.87 158.28 237.48 Z" />
<path fill="#c61936" d=" M 123.77 239.77 C 125.00 239.73 126.23 239.70 127.45 239.67 C 127.32 244.29 126.83 248.94 127.60 253.54 C 129.56 253.68 132.68 254.69 133.22 251.93 C 133.99 248.12 133.75 244.20 133.85 240.33 C 135.06 240.30 136.27 240.26 137.49 240.24 C 136.99 244.92 138.11 249.92 136.24 254.38 C 134.60 257.25 130.92 256.79 128.14 256.60 C 125.87 256.43 123.60 254.41 123.59 252.06 C 123.42 247.96 123.69 243.86 123.77 239.77 Z" />
<path fill="#c61936" d=" M 151.55 238.62 C 152.45 238.60 154.24 238.55 155.13 238.53 C 155.45 244.01 156.47 249.40 156.95 254.87 C 155.61 255.05 154.27 255.24 152.93 255.42 C 150.39 251.82 147.91 248.18 145.43 244.54 C 145.85 248.46 146.43 252.36 146.74 256.29 C 145.92 256.35 144.29 256.46 143.48 256.52 C 142.65 250.99 142.00 245.45 141.39 239.90 C 142.41 239.80 144.45 239.59 145.47 239.48 C 148.00 242.98 150.38 246.58 152.82 250.14 C 152.58 246.28 152.08 242.45 151.55 238.62 Z" />
<path fill="#c61936" d=" M 528.00 335.41 C 542.21 332.63 557.14 333.11 571.10 337.04 C 585.32 341.07 598.40 350.78 604.18 364.68 C 607.16 369.99 602.72 375.42 601.96 380.76 C 594.94 381.06 587.90 380.97 580.88 380.90 C 578.22 381.32 577.86 378.16 576.82 376.48 C 573.03 367.79 564.03 362.51 554.93 361.13 C 546.48 359.85 537.57 360.32 529.57 363.51 C 522.56 366.31 516.93 372.06 513.88 378.92 C 509.85 387.69 509.16 397.48 508.86 406.99 C 509.17 418.61 510.19 431.05 517.12 440.85 C 522.03 447.90 530.18 452.05 538.58 453.18 C 549.20 454.54 561.08 453.73 569.75 446.75 C 573.93 443.66 576.26 438.91 578.61 434.43 C 579.13 433.06 580.81 433.46 581.95 433.30 C 588.52 433.27 595.10 433.29 601.68 433.34 C 602.97 437.51 604.88 441.59 605.39 445.95 C 601.50 458.39 591.61 468.41 579.90 473.83 C 569.03 478.85 556.90 480.78 544.99 480.52 C 527.23 480.80 508.67 474.88 496.37 461.64 C 484.45 449.23 479.19 431.89 478.14 415.03 C 477.00 396.64 479.44 377.22 489.46 361.37 C 497.89 347.75 512.38 338.47 528.00 335.41 Z" />
<path fill="#c61936" d=" M 41.65 336.41 C 49.73 336.33 57.81 336.26 65.89 336.40 C 67.16 336.20 67.73 337.62 68.13 338.56 C 75.76 369.79 82.72 401.20 90.65 432.35 C 99.61 400.39 108.78 368.48 117.90 336.55 C 128.09 336.12 138.31 336.41 148.50 336.39 C 150.33 340.65 151.41 345.18 152.70 349.62 C 158.74 370.76 164.83 391.88 170.88 413.01 C 172.81 419.51 174.40 426.12 176.78 432.48 C 183.25 402.29 190.81 372.33 197.58 342.20 C 198.07 340.25 198.35 338.12 199.68 336.53 C 204.79 336.05 209.94 336.48 215.06 336.34 C 218.38 336.45 221.81 335.93 225.06 336.83 C 226.06 341.27 227.01 345.93 226.33 350.49 C 215.81 392.00 205.42 433.55 195.04 475.09 C 194.62 476.08 194.47 477.89 192.98 477.79 C 182.59 478.07 172.17 477.84 161.77 477.87 C 159.94 473.62 158.93 469.08 157.62 464.66 C 149.45 436.47 141.40 408.25 133.19 380.08 C 123.92 412.13 114.39 444.11 105.20 476.19 C 104.89 476.60 104.27 477.44 103.96 477.85 C 93.96 477.89 83.94 478.02 73.95 477.82 C 72.37 478.00 72.16 475.98 71.75 474.94 C 61.15 432.66 50.34 390.42 39.80 348.13 C 40.48 344.23 40.91 340.30 41.65 336.41 Z" />
<path fill="#c61936" d=" M 327.31 336.42 C 336.62 336.41 345.94 336.06 355.24 336.62 C 354.99 344.54 356.02 352.59 354.63 360.43 C 345.55 360.35 336.47 360.42 327.39 360.39 C 326.53 352.45 326.68 344.37 327.31 336.42 Z" />
<path fill="#c61936" d=" M 366.55 336.55 C 375.81 336.33 385.13 336.00 394.36 336.67 C 394.67 338.07 394.70 339.51 394.73 340.94 C 394.69 370.29 394.73 399.63 394.72 428.98 C 394.55 445.10 395.05 461.27 394.48 477.37 C 394.15 477.58 393.50 478.02 393.17 478.24 C 385.39 478.57 377.58 478.34 369.79 478.30 C 368.46 473.27 366.13 468.34 366.37 463.02 C 366.54 420.87 366.18 378.70 366.55 336.55 Z" />
<path fill="#c61936" d=" M 405.52 336.57 C 414.05 336.08 422.62 336.40 431.17 336.40 C 432.65 336.05 433.61 337.51 433.34 338.89 C 433.43 385.08 433.29 431.29 433.41 477.49 C 430.08 478.79 426.47 478.34 422.99 478.39 C 418.65 478.31 414.31 478.53 409.97 478.31 C 408.50 478.57 407.92 476.94 407.59 475.86 C 406.53 471.97 405.06 468.10 404.98 464.03 C 405.06 423.02 405.10 382.00 404.95 341.00 C 404.99 339.50 405.07 338.00 405.52 336.57 Z" />
<path fill="#c61936" d=" M 1010.35 336.42 C 1018.89 336.30 1027.44 336.30 1035.98 336.38 C 1037.45 336.04 1038.57 337.44 1038.30 338.87 C 1038.38 385.07 1038.24 431.28 1038.37 477.48 C 1032.75 479.29 1026.74 477.99 1020.96 478.40 C 1018.49 478.11 1015.48 479.09 1013.38 477.67 C 1011.50 473.05 1009.99 468.08 1009.90 463.05 C 1009.94 430.37 1009.91 397.69 1009.92 365.01 C 1010.14 355.48 1009.42 345.91 1010.35 336.42 Z" />
<path fill="#c61936" d=" M 1048.62 336.52 C 1057.62 336.12 1066.66 336.38 1075.67 336.43 C 1076.58 347.58 1075.85 358.81 1076.09 369.99 C 1076.08 405.03 1076.10 440.07 1076.08 475.11 C 1076.18 476.37 1075.66 478.46 1074.03 478.30 C 1066.64 478.41 1059.23 478.53 1051.85 478.23 L 1050.93 477.46 C 1049.05 472.20 1047.34 466.69 1047.66 461.04 C 1047.80 419.91 1047.52 378.77 1047.80 337.65 C 1048.01 337.36 1048.42 336.80 1048.62 336.52 Z" />
<path fill="#c61936" d=" M 233.01 382.10 C 241.86 371.87 255.65 366.96 268.97 367.22 C 281.18 366.87 294.03 370.32 303.05 378.88 C 313.15 387.97 318.27 401.65 318.72 415.03 C 319.14 420.51 316.76 425.59 315.31 430.74 C 293.41 430.92 271.51 430.65 249.61 430.87 C 249.43 431.10 249.06 431.55 248.88 431.78 C 249.53 439.58 252.36 448.14 259.47 452.34 C 266.78 456.44 275.92 456.60 283.84 454.35 C 289.31 452.93 292.76 448.28 296.72 444.65 C 302.52 444.90 308.34 444.47 314.13 444.85 C 314.43 445.05 315.04 445.44 315.34 445.64 C 316.70 449.90 317.76 454.32 318.41 458.75 C 312.88 468.80 302.55 475.59 291.60 478.45 C 283.62 480.78 275.22 480.83 266.98 480.39 C 254.60 479.35 241.95 474.89 233.40 465.53 C 223.30 454.74 219.53 439.44 219.62 424.99 C 219.29 409.83 222.92 393.83 233.01 382.10 Z" />
<path fill="#c61936" d=" M 649.64 367.85 C 665.07 366.05 682.15 367.26 694.89 377.10 C 706.76 386.32 711.89 401.52 712.87 416.05 C 713.88 431.98 712.41 449.28 702.74 462.59 C 695.34 473.05 682.83 478.62 670.39 480.13 C 658.35 481.18 645.71 480.75 634.58 475.52 C 625.24 471.32 617.80 463.39 613.77 454.02 C 608.13 441.23 607.69 426.92 608.77 413.20 C 610.33 399.52 615.53 385.33 626.93 376.85 C 633.47 371.80 641.52 369.05 649.64 367.85 Z" />
<path fill="#c61936" d=" M 846.86 367.89 C 858.80 366.18 872.36 366.89 881.99 375.03 C 890.72 382.27 893.92 394.04 894.16 404.98 C 894.17 429.15 894.14 453.31 894.18 477.48 C 884.75 478.19 875.19 478.16 865.77 477.49 C 865.78 455.66 865.78 433.82 865.77 411.98 C 865.75 406.84 865.14 401.32 861.85 397.16 C 858.62 392.98 852.98 391.70 847.95 391.89 C 841.75 392.24 835.23 394.19 831.10 399.08 C 826.83 404.34 825.54 411.36 825.51 417.98 C 825.44 437.84 825.56 457.69 825.46 477.55 C 816.65 478.24 807.79 477.85 798.96 477.83 C 797.37 478.03 797.04 476.16 797.17 475.00 C 797.16 449.00 797.18 423.01 797.17 397.01 C 797.38 387.93 796.71 378.82 797.56 369.77 C 805.16 369.76 812.77 369.78 820.37 369.76 C 821.55 373.61 822.61 377.50 823.75 381.37 C 829.48 374.19 837.77 369.30 846.86 367.89 Z" />
<path fill="#c61936" d=" M 942.86 367.86 C 955.84 366.10 969.92 367.44 981.06 374.87 C 994.49 383.84 1001.67 400.16 1001.75 416.02 C 1001.92 421.15 999.69 425.91 998.34 430.76 C 976.27 430.81 954.20 430.83 932.12 430.75 C 931.96 439.94 936.24 450.25 945.33 453.75 C 952.50 456.38 960.78 456.51 967.99 453.95 C 972.96 452.36 976.02 447.95 979.78 444.65 C 985.57 444.90 991.38 444.47 997.17 444.86 C 997.47 445.04 998.07 445.40 998.37 445.58 C 999.87 449.89 1000.51 454.45 1001.64 458.87 C 994.45 470.78 981.41 478.08 967.82 479.91 C 952.29 481.87 935.27 480.21 922.26 470.75 C 910.61 462.26 904.54 448.02 903.14 433.99 C 901.43 417.59 903.46 399.88 913.02 386.01 C 919.75 375.99 931.04 369.62 942.86 367.86 Z" />
<path fill="#c61936" d=" M 326.89 382.94 C 326.92 378.53 326.59 374.09 327.44 369.74 C 336.72 370.17 346.13 368.97 355.33 370.42 C 355.24 406.21 355.28 442.00 355.30 477.79 C 346.55 478.57 337.72 478.10 328.94 478.12 C 326.30 478.68 327.08 475.53 326.86 473.92 C 326.92 443.59 326.87 413.27 326.89 382.94 Z" />
<path fill="#c61936" d=" M 719.55 369.63 C 727.14 369.56 734.75 369.48 742.35 369.68 C 743.55 373.84 744.57 378.05 745.76 382.22 C 750.42 377.12 756.32 373.10 763.04 371.28 C 770.63 369.14 778.62 369.57 786.42 369.64 C 787.25 375.38 786.70 381.20 786.87 386.98 C 786.78 389.74 787.22 392.62 786.26 395.28 C 780.20 395.95 774.07 395.27 768.00 395.72 C 762.29 396.83 756.58 399.20 753.02 404.00 C 748.57 409.59 747.40 417.01 747.42 423.97 C 747.40 441.81 747.43 459.64 747.41 477.48 C 740.01 478.92 732.43 477.85 724.96 478.22 C 723.03 478.05 719.31 478.88 719.14 476.07 C 719.01 450.03 719.13 423.99 719.09 397.95 C 719.34 388.51 718.54 379.02 719.55 369.63 Z" />
<path fill="#fffefe" d=" M 264.76 391.79 C 270.87 390.71 278.22 390.33 283.08 394.93 C 287.66 398.98 289.24 405.13 290.36 410.91 C 276.77 410.94 263.18 410.96 249.60 410.90 C 251.32 402.69 255.98 393.92 264.76 391.79 Z" />
<path fill="#fffefe" d=" M 655.52 391.80 C 663.04 390.46 671.85 391.83 677.00 397.98 C 682.99 405.16 683.84 414.98 684.02 423.97 C 683.90 433.36 682.83 443.82 676.03 450.96 C 666.22 459.82 647.55 458.07 641.53 445.55 C 636.50 434.91 636.79 422.52 638.59 411.14 C 639.93 402.21 646.02 393.18 655.52 391.80 Z" />
<path fill="#fffefe" d=" M 941.74 394.72 C 947.03 390.69 954.18 390.60 960.45 391.74 C 968.78 394.13 972.18 403.16 973.39 410.92 C 959.75 410.82 946.10 411.19 932.47 410.72 C 934.39 404.87 936.43 398.42 941.74 394.72 Z" />
<path fill="#f47b27" d=" M 972.03 500.86 C 987.48 499.26 1003.74 500.17 1017.93 507.01 C 1029.75 512.65 1039.13 522.83 1044.33 534.81 C 1050.85 549.57 1052.17 566.08 1051.11 582.03 C 1049.92 597.11 1045.07 612.44 1034.74 623.79 C 1034.13 624.76 1032.41 626.04 1033.68 627.21 C 1037.99 632.56 1042.61 637.65 1046.79 643.11 C 1041.23 648.18 1035.61 653.21 1029.84 658.02 C 1028.50 659.50 1027.10 657.60 1026.27 656.65 C 1021.49 650.89 1016.69 645.14 1011.94 639.35 C 996.59 644.57 979.86 646.06 963.92 642.97 C 950.56 640.41 938.16 632.93 930.25 621.80 C 920.34 607.73 916.77 590.04 917.22 573.06 C 916.71 555.34 920.55 536.73 931.50 522.42 C 941.05 509.72 956.51 502.67 972.03 500.86 Z" />
<path fill="#f47b27" d=" M 59.59 502.77 C 70.20 502.73 80.82 502.82 91.43 502.72 C 106.28 536.16 120.21 570.02 135.00 603.49 C 149.01 569.94 162.97 536.36 176.92 502.78 C 187.74 503.11 198.68 502.00 209.43 503.39 C 209.24 549.99 209.60 596.61 209.25 643.20 C 208.98 643.46 208.45 643.99 208.18 644.25 C 200.31 644.63 192.42 644.24 184.55 644.42 C 182.93 639.38 180.87 634.31 181.06 628.93 C 181.12 614.29 181.08 599.65 181.09 585.02 C 181.05 578.08 181.30 571.13 180.72 564.22 C 169.63 591.09 157.87 617.70 146.36 644.40 C 138.12 644.38 129.88 644.38 121.65 644.41 C 110.20 617.86 99.15 591.14 87.73 564.58 C 87.24 586.74 87.69 608.91 87.51 631.07 C 87.24 635.67 85.34 639.95 84.21 644.38 C 76.00 644.39 67.78 644.42 59.56 644.36 C 59.07 639.60 59.23 634.81 59.24 630.04 C 59.23 597.37 59.23 564.69 59.23 532.01 C 59.43 522.27 58.81 512.50 59.59 502.77 Z" />
<path fill="#f47b27" d=" M 400.64 503.45 C 409.83 501.92 419.25 503.18 428.54 502.74 C 428.79 504.48 429.02 506.23 429.09 508.00 C 429.11 551.33 429.05 594.67 429.11 638.01 C 429.09 640.11 428.82 642.22 428.50 644.31 C 420.93 644.27 413.36 644.30 405.79 644.29 C 404.67 640.86 403.73 637.38 402.95 633.87 C 399.14 635.94 396.29 639.36 392.45 641.38 C 385.38 645.51 377.12 647.28 368.97 646.95 C 358.60 647.07 348.08 643.70 340.22 636.84 C 332.34 629.96 327.54 620.16 325.16 610.10 C 322.66 600.61 323.14 590.70 323.42 581.00 C 324.58 567.35 329.42 553.21 339.96 543.95 C 348.59 536.16 360.58 533.12 371.99 533.63 C 382.59 533.65 393.05 537.76 400.67 545.14 C 400.69 531.24 400.76 517.34 400.64 503.45 Z" />
<path fill="#f47b27" d=" M 441.07 523.10 C 441.22 516.31 440.70 509.50 441.50 502.75 C 450.80 503.14 460.21 501.98 469.44 503.41 C 469.33 511.10 469.44 518.79 469.36 526.48 C 460.59 527.10 451.77 526.76 442.99 526.74 C 440.89 526.91 441.06 524.51 441.07 523.10 Z" />
<path fill="#f47b27" d=" M 583.47 503.36 C 592.71 502.06 602.10 503.09 611.41 502.76 C 612.12 510.14 611.78 517.58 611.72 524.98 C 611.83 527.03 609.38 526.78 608.01 526.82 C 599.85 526.66 591.67 527.15 583.54 526.47 C 583.44 518.76 583.53 511.06 583.47 503.36 Z" />
<path fill="#f47b27" d=" M 1183.43 520.91 C 1183.98 516.74 1185.56 512.80 1186.70 508.77 C 1194.59 508.77 1202.49 508.76 1210.38 508.78 C 1211.17 517.89 1210.52 527.06 1210.77 536.20 C 1219.26 536.34 1227.77 535.90 1236.26 536.48 C 1236.25 544.52 1236.24 552.55 1236.27 560.59 C 1227.77 561.16 1219.25 560.64 1210.74 560.91 C 1210.75 577.28 1210.71 593.66 1210.75 610.03 C 1210.57 614.33 1212.64 619.18 1217.14 620.32 C 1223.22 621.09 1229.39 620.53 1235.52 620.64 C 1236.71 624.99 1236.15 629.53 1236.27 633.99 C 1236.34 637.48 1236.32 640.99 1235.71 644.44 C 1224.56 643.94 1212.97 645.80 1202.26 641.79 C 1194.18 638.97 1187.46 632.30 1185.03 624.05 C 1182.63 617.28 1183.44 610.02 1183.32 602.99 C 1183.30 588.94 1183.37 574.89 1183.28 560.84 C 1178.62 560.84 1173.96 560.86 1169.30 560.79 C 1169.27 552.62 1169.23 544.45 1169.33 536.28 C 1173.97 536.17 1178.63 536.20 1183.28 536.21 C 1183.42 531.11 1183.12 526.00 1183.43 520.91 Z" />
<path fill="#fffefe" d=" M 958.10 536.03 C 964.47 528.65 974.47 525.29 984.04 525.49 C 993.16 525.27 1002.74 528.10 1009.17 534.83 C 1017.22 543.03 1020.01 554.86 1020.74 566.00 C 1021.47 578.85 1020.75 592.52 1014.12 603.92 C 1008.58 597.21 1003.10 590.46 997.43 583.88 C 990.47 587.93 985.23 594.32 978.86 599.20 C 983.10 606.12 989.22 611.62 993.93 618.21 C 983.47 620.20 971.85 619.39 962.87 613.19 C 956.75 609.10 952.88 602.44 950.57 595.59 C 947.31 585.40 946.96 574.52 947.78 563.93 C 948.82 554.01 951.43 543.73 958.10 536.03 Z" />
<path fill="#f47b27" d=" M 673.02 534.47 C 682.16 532.86 691.88 533.10 700.56 536.62 C 707.98 539.57 713.99 545.69 717.10 553.02 C 719.81 559.26 720.84 566.15 720.78 572.94 C 720.75 589.97 720.77 607.01 720.77 624.04 C 720.65 630.81 721.07 637.60 720.44 644.35 C 711.18 644.38 701.92 644.48 692.67 644.30 C 692.18 621.52 692.67 598.74 692.42 575.96 C 692.26 571.56 691.19 567.00 688.45 563.48 C 685.44 559.82 680.55 558.25 675.94 558.41 C 668.81 558.29 660.92 560.70 656.79 566.88 C 652.86 572.41 652.20 579.40 652.19 585.99 C 652.16 600.63 652.19 615.28 652.18 629.93 C 652.12 634.76 652.54 639.64 651.60 644.42 C 642.53 644.37 633.46 644.36 624.40 644.42 C 623.40 639.65 623.87 634.77 623.80 629.95 C 623.77 600.28 623.84 570.62 623.76 540.95 C 623.82 539.44 623.67 537.82 624.52 536.50 C 632.06 536.00 639.65 536.34 647.21 536.38 C 648.20 540.29 649.31 544.17 650.60 548.00 C 655.80 540.60 664.21 535.99 673.02 534.47 Z" />
<path fill="#f47b27" d=" M 253.24 535.58 C 267.02 532.04 282.46 532.90 295.01 540.00 C 309.61 548.39 317.64 565.45 317.78 581.92 C 318.12 587.33 315.84 592.35 314.32 597.41 C 292.18 597.41 270.04 597.39 247.91 597.42 C 248.55 605.83 251.52 615.32 259.61 619.35 C 267.94 623.25 278.24 623.40 286.52 619.29 C 290.19 617.59 292.42 614.09 295.46 611.61 C 301.75 611.00 308.10 611.47 314.42 611.44 C 315.33 616.11 317.34 620.70 317.38 625.47 C 311.44 636.25 299.92 643.00 288.14 645.54 C 273.09 648.49 256.59 647.56 242.93 640.10 C 230.08 633.16 222.29 619.39 219.95 605.30 C 217.53 590.11 218.38 573.92 224.89 559.80 C 230.24 548.13 240.71 538.77 253.24 535.58 Z" />
<path fill="#f47b27" d=" M 494.10 546.15 C 506.61 534.74 524.71 532.15 540.97 534.15 C 554.11 535.66 567.12 542.40 574.06 553.96 C 574.71 554.89 574.88 555.92 574.55 557.04 C 573.78 561.20 572.56 565.27 571.35 569.33 C 565.28 569.20 559.18 569.68 553.14 569.13 C 550.60 567.25 549.43 564.03 546.71 562.35 C 540.37 558.09 532.20 557.74 524.90 559.05 C 518.84 560.15 513.41 564.18 510.89 569.84 C 506.75 578.88 506.83 589.18 507.67 598.90 C 508.53 606.72 511.42 615.36 518.78 619.34 C 526.44 623.26 535.92 623.16 543.81 619.94 C 547.78 618.39 550.09 614.74 552.73 611.64 C 558.92 610.96 565.19 611.51 571.42 611.41 C 572.60 615.86 574.12 620.27 574.72 624.86 C 573.97 627.88 571.54 630.18 569.61 632.54 C 561.17 641.99 548.39 646.32 536.01 646.93 C 520.68 647.88 503.88 644.52 492.80 633.15 C 481.29 621.71 477.64 604.75 477.88 589.03 C 477.99 573.52 482.36 556.97 494.10 546.15 Z" />
<path fill="#f47b27" d=" M 760.57 536.30 C 772.36 532.56 785.42 532.61 797.15 536.55 C 808.25 540.25 817.36 548.87 822.27 559.42 C 825.45 566.16 827.17 573.56 827.61 580.99 C 828.15 586.69 825.51 591.95 824.14 597.35 C 801.92 597.51 779.69 597.29 757.46 597.47 C 758.41 605.46 760.82 614.36 768.23 618.75 C 776.04 623.05 785.86 623.33 794.16 620.26 C 798.64 618.73 801.65 614.97 804.87 611.72 C 811.24 610.87 817.78 611.48 824.22 611.51 C 825.30 616.08 826.32 620.67 827.47 625.23 C 820.06 637.67 806.24 645.04 792.08 646.52 C 776.28 648.29 758.86 646.10 746.20 635.72 C 735.82 627.26 730.55 614.03 728.97 601.01 C 727.57 587.13 728.60 572.60 734.59 559.82 C 739.59 548.89 749.02 539.92 760.57 536.30 Z" />
<path fill="#f47b27" d=" M 1060.24 554.98 C 1067.75 542.56 1081.98 536.07 1095.96 534.41 C 1107.98 532.98 1120.56 533.03 1132.11 537.08 C 1141.08 540.14 1149.05 546.84 1152.42 555.84 C 1156.24 565.08 1154.59 575.27 1154.94 584.98 C 1155.23 595.94 1154.32 606.97 1155.49 617.89 C 1155.95 622.57 1160.47 624.84 1164.60 625.63 C 1164.52 631.73 1164.73 637.84 1164.41 643.94 C 1160.58 644.71 1156.88 645.98 1153.06 646.73 C 1143.86 648.08 1134.38 642.84 1130.73 634.26 C 1124.37 641.36 1115.13 645.14 1105.81 646.31 C 1094.22 647.75 1081.66 647.68 1071.24 641.71 C 1064.25 637.91 1059.41 630.83 1057.68 623.14 C 1055.59 614.22 1056.28 604.19 1061.48 596.43 C 1066.11 589.41 1073.94 585.23 1081.83 582.94 C 1092.28 579.84 1103.25 579.94 1114.02 579.06 C 1118.24 578.67 1122.48 578.46 1126.73 578.26 C 1126.57 573.01 1127.65 567.12 1124.38 562.57 C 1121.38 558.29 1115.88 556.95 1110.96 556.58 C 1103.35 556.05 1095.23 557.40 1089.03 562.08 C 1086.35 564.01 1084.67 567.01 1081.96 568.88 C 1075.86 569.52 1069.64 569.25 1063.52 568.82 C 1062.39 564.21 1061.23 559.61 1060.24 554.98 Z" />
<path fill="#f47b27" d=" M 1269.41 537.68 C 1280.46 533.65 1292.44 533.11 1304.08 533.89 C 1314.39 534.84 1325.19 537.83 1332.66 545.40 C 1339.47 551.99 1342.24 561.75 1342.11 571.02 C 1342.08 584.70 1342.10 598.38 1342.08 612.07 C 1342.17 615.36 1342.14 618.99 1344.18 621.79 C 1345.88 624.22 1348.99 624.75 1351.64 625.63 C 1351.60 631.64 1351.66 637.66 1351.59 643.67 C 1345.57 645.25 1339.41 648.04 1333.09 646.45 C 1326.22 645.43 1320.66 640.39 1317.78 634.24 C 1311.04 641.86 1301.02 645.56 1291.11 646.53 C 1278.96 647.87 1265.57 647.25 1255.34 639.79 C 1244.53 631.77 1241.52 616.44 1245.02 603.97 C 1247.04 596.67 1252.41 590.60 1259.00 587.01 C 1268.49 581.72 1279.53 580.40 1290.20 579.77 C 1298.06 579.40 1305.89 578.54 1313.77 578.27 C 1313.59 573.02 1314.74 567.09 1311.43 562.54 C 1308.16 557.98 1302.22 556.78 1296.96 556.51 C 1288.35 556.11 1278.85 558.27 1272.98 565.01 C 1271.25 566.66 1269.87 569.44 1267.10 569.14 C 1261.59 569.25 1256.06 569.35 1250.58 568.80 C 1249.64 564.49 1248.26 560.27 1247.58 555.91 C 1247.24 554.45 1248.58 553.38 1249.22 552.22 C 1254.16 545.35 1261.49 540.47 1269.41 537.68 Z" />
<path fill="#f47b27" d=" M 441.08 539.94 C 441.18 538.53 440.86 535.98 443.03 536.36 C 451.79 536.28 460.59 536.03 469.34 536.59 C 469.43 572.54 469.40 608.49 469.36 644.44 C 459.98 644.65 450.60 644.54 441.22 644.51 C 440.91 609.65 441.19 574.79 441.08 539.94 Z" />
<path fill="#f47b27" d=" M 583.56 536.57 C 590.70 535.99 597.86 536.43 605.02 536.25 C 607.08 536.35 609.29 535.97 611.28 536.72 C 612.01 538.01 611.68 539.59 611.83 541.01 C 611.66 575.51 612.00 610.02 611.65 644.52 C 602.28 644.54 592.91 644.64 583.54 644.45 C 583.48 608.49 583.43 572.53 583.56 536.57 Z" />
<path fill="#f47b27" d=" M 1359.23 539.91 C 1359.27 538.62 1359.13 536.25 1361.06 536.39 C 1368.20 536.05 1375.36 536.39 1382.51 536.30 C 1383.69 540.45 1384.76 544.63 1385.85 548.81 C 1389.48 545.03 1393.53 541.50 1398.42 539.46 C 1407.35 535.36 1417.46 535.98 1427.00 536.67 L 1427.00 561.62 C 1420.39 562.41 1413.70 561.62 1407.11 562.52 C 1400.05 563.51 1393.51 568.03 1390.57 574.60 C 1386.59 582.83 1387.65 592.18 1387.53 601.02 C 1387.43 615.47 1387.73 629.93 1387.37 644.37 C 1378.08 644.68 1368.80 644.59 1359.52 644.44 C 1359.09 638.63 1359.23 632.81 1359.24 626.99 C 1359.23 597.97 1359.24 568.94 1359.23 539.91 Z" />
<path fill="#fffefe" d=" M 261.45 559.13 C 268.37 556.42 277.43 556.47 282.96 562.04 C 287.06 566.13 288.40 571.95 289.52 577.43 C 275.95 577.45 262.37 577.47 248.79 577.42 C 250.28 570.00 254.03 562.15 261.45 559.13 Z" />
<path fill="#fffefe" d=" M 372.14 557.98 C 379.83 556.93 388.42 559.24 393.46 565.42 C 399.35 572.45 400.70 582.07 400.63 590.94 C 400.52 599.90 398.69 609.62 392.26 616.29 C 386.31 622.36 376.98 623.79 368.97 621.85 C 363.44 620.66 358.58 616.83 356.10 611.76 C 352.52 605.07 352.10 597.31 351.85 589.90 C 352.17 581.63 352.84 572.79 357.82 565.84 C 361.07 561.17 366.59 558.59 372.14 557.98 Z" />
<path fill="#fffefe" d=" M 770.04 559.63 C 776.20 556.75 784.05 556.39 790.03 559.93 C 795.89 563.72 798.11 570.86 799.15 577.41 C 785.55 577.46 771.96 577.48 758.36 577.40 C 760.11 570.45 763.19 562.94 770.04 559.63 Z" />
<path fill="#f47b27" d=" M 837.52 568.10 C 860.64 567.94 883.76 567.97 906.88 568.13 C 907.15 577.23 907.17 586.34 906.86 595.44 C 883.75 595.50 860.64 595.49 837.53 595.44 C 837.46 586.32 837.47 577.21 837.52 568.10 Z" />
<path fill="#fffefe" d=" M 1115.01 601.33 C 1118.88 601.04 1122.74 600.55 1126.63 600.39 C 1126.44 605.50 1127.56 611.14 1124.73 615.75 C 1121.20 621.51 1114.44 624.25 1108.02 625.22 C 1102.11 625.83 1095.64 625.78 1090.46 622.50 C 1084.53 618.40 1085.08 607.83 1091.88 604.89 C 1099.07 601.55 1107.26 601.92 1115.01 601.33 Z" />
<path fill="#fffefe" d=" M 1295.02 601.69 C 1301.25 601.52 1307.45 600.77 1313.69 600.39 C 1313.50 605.50 1314.60 611.14 1311.80 615.75 C 1308.23 621.50 1301.49 624.27 1295.05 625.22 C 1289.33 625.82 1283.17 625.75 1278.04 622.84 C 1272.13 619.32 1271.78 609.50 1277.56 605.70 C 1282.74 602.41 1289.10 602.29 1295.02 601.69 Z" />
</svg>
