<?xml version="1.0" encoding="UTF-8"?>
<svg xmlns="http://www.w3.org/2000/svg" xmlns:xlink="http://www.w3.org/1999/xlink" width="569.7638pt" height="226.7717pt" viewBox="0 0 569.7638 226.7717" version="1.1">
<g id="surface0">
<path style=" stroke:none;fill-rule:nonzero;fill:rgb(14.000153%,11.999695%,12.999161%);fill-opacity:1;" d="M 154.078125 148.777344 L 156.640625 148.777344 L 160.535156 161.886719 L 160.578125 161.886719 L 164.054688 148.777344 L 167.363281 148.777344 L 170.882812 161.886719 L 170.925781 161.886719 L 174.820312 148.777344 L 177.289062 148.777344 L 172.28125 164.078125 L 169.273438 164.078125 L 165.730469 150.707031 L 165.683594 150.707031 L 162.113281 164.078125 L 158.996094 164.078125 L 154.078125 148.777344 Z M 154.078125 148.777344 "/>
<path style=" stroke:none;fill-rule:nonzero;fill:rgb(14.000153%,11.999695%,12.999161%);fill-opacity:1;" d="M 185.148438 157.414062 C 185.148438 155.703125 184.078125 154.300781 182.183594 154.300781 C 180.042969 154.300781 179.160156 155.96875 178.996094 157.414062 L 185.148438 157.414062 Z M 186.570312 163.617188 C 185.730469 163.90625 184.773438 164.34375 182.820312 164.34375 C 178.601562 164.34375 176.664062 161.933594 176.664062 158.292969 C 176.664062 154.980469 178.878906 152.636719 182.234375 152.636719 C 186.195312 152.636719 187.480469 155.355469 187.480469 158.953125 L 178.996094 158.953125 C 178.996094 161.167969 180.835938 162.675781 182.910156 162.675781 C 184.355469 162.675781 186.03125 161.972656 186.570312 161.558594 L 186.570312 163.617188 Z M 186.570312 163.617188 "/>
<path style=" stroke:none;fill-rule:nonzero;fill:rgb(14.000153%,11.999695%,12.999161%);fill-opacity:1;" d="M 189.644531 152.898438 L 191.835938 152.898438 L 191.835938 164.078125 L 189.644531 164.078125 L 189.644531 152.898438 Z M 191.976562 150.398438 L 189.503906 150.398438 L 189.503906 148.074219 L 191.976562 148.074219 L 191.976562 150.398438 Z M 191.976562 150.398438 "/>
<path style=" stroke:none;fill-rule:nonzero;fill:rgb(14.000153%,11.999695%,12.999161%);fill-opacity:1;" d="M 195.074219 147.636719 L 197.261719 147.636719 L 197.261719 164.078125 L 195.074219 164.078125 L 195.074219 147.636719 Z M 195.074219 147.636719 "/>
<path style=" stroke:none;fill-rule:nonzero;fill:rgb(14.000153%,11.999695%,12.999161%);fill-opacity:1;" d="M 200.503906 147.636719 L 202.699219 147.636719 L 202.699219 164.078125 L 200.503906 164.078125 L 200.503906 147.636719 Z M 200.503906 147.636719 "/>
<path style=" stroke:none;fill-rule:nonzero;fill:rgb(14.000153%,11.999695%,12.999161%);fill-opacity:1;" d="M 222.53125 151.300781 C 221.503906 150.730469 220.359375 150.445312 219.171875 150.445312 C 215.421875 150.445312 212.925781 152.984375 212.925781 156.425781 C 212.925781 160.023438 215.675781 162.414062 219.054688 162.414062 C 220.222656 162.414062 221.78125 162.128906 222.597656 161.667969 L 222.738281 163.796875 C 221.503906 164.277344 219.988281 164.34375 219.03125 164.34375 C 213.878906 164.34375 210.457031 161.230469 210.457031 156.367188 C 210.457031 151.652344 214.09375 148.511719 219.054688 148.511719 C 220.3125 148.511719 221.546875 148.6875 222.714844 149.171875 L 222.53125 151.300781 Z M 222.53125 151.300781 "/>
<path style=" stroke:none;fill-rule:nonzero;fill:rgb(14.000153%,11.999695%,12.999161%);fill-opacity:1;" d="M 229.542969 162.675781 C 232.105469 162.675781 233.246094 160.484375 233.246094 158.488281 C 233.246094 156.367188 231.875 154.300781 229.542969 154.300781 C 227.1875 154.300781 225.816406 156.367188 225.816406 158.488281 C 225.816406 160.484375 226.953125 162.675781 229.542969 162.675781 Z M 229.542969 152.636719 C 233.152344 152.636719 235.582031 155.09375 235.582031 158.488281 C 235.582031 161.691406 233.105469 164.34375 229.542969 164.34375 C 225.953125 164.34375 223.484375 161.691406 223.484375 158.488281 C 223.484375 155.09375 225.90625 152.636719 229.542969 152.636719 "/>
<path style=" stroke:none;fill-rule:nonzero;fill:rgb(14.000153%,11.999695%,12.999161%);fill-opacity:1;" d="M 237.558594 152.898438 L 239.609375 152.898438 L 239.609375 154.628906 L 239.65625 154.628906 C 240.238281 153.46875 241.496094 152.636719 242.753906 152.636719 C 243.40625 152.636719 243.734375 152.703125 244.199219 152.789062 L 244.199219 154.628906 C 243.804688 154.480469 243.363281 154.433594 242.988281 154.433594 C 241.03125 154.433594 239.75 156.1875 239.75 158.992188 L 239.75 164.078125 L 237.558594 164.078125 L 237.558594 152.898438 Z M 237.558594 152.898438 "/>
<path style=" stroke:none;fill-rule:nonzero;fill:rgb(14.000153%,11.999695%,12.999161%);fill-opacity:1;" d="M 245.667969 152.898438 L 247.785156 152.898438 L 247.785156 154.675781 L 247.835938 154.675781 C 248.484375 153.402344 250.070312 152.636719 251.726562 152.636719 C 254.800781 152.636719 256.179688 154.433594 256.179688 157.4375 L 256.179688 164.078125 L 253.988281 164.078125 L 253.988281 158.292969 C 253.988281 155.683594 253.378906 154.410156 251.46875 154.300781 C 248.976562 154.300781 247.859375 156.1875 247.859375 158.90625 L 247.859375 164.078125 L 245.667969 164.078125 L 245.667969 152.898438 Z M 245.667969 152.898438 "/>
<path style=" stroke:none;fill-rule:nonzero;fill:rgb(14.000153%,11.999695%,12.999161%);fill-opacity:1;" d="M 266.644531 157.414062 C 266.644531 155.703125 265.566406 154.300781 263.683594 154.300781 C 261.535156 154.300781 260.652344 155.96875 260.492188 157.414062 L 266.644531 157.414062 Z M 268.058594 163.617188 C 267.222656 163.90625 266.265625 164.34375 264.308594 164.34375 C 260.089844 164.34375 258.15625 161.933594 258.15625 158.292969 C 258.15625 154.980469 260.371094 152.636719 263.726562 152.636719 C 267.6875 152.636719 268.972656 155.355469 268.972656 158.953125 L 260.492188 158.953125 C 260.492188 161.167969 262.328125 162.675781 264.402344 162.675781 C 265.84375 162.675781 267.523438 161.972656 268.058594 161.558594 L 268.058594 163.617188 Z M 268.058594 163.617188 "/>
<path style=" stroke:none;fill-rule:nonzero;fill:rgb(14.000153%,11.999695%,12.999161%);fill-opacity:1;" d="M 271.234375 147.636719 L 273.425781 147.636719 L 273.425781 164.078125 L 271.234375 164.078125 L 271.234375 147.636719 Z M 271.234375 147.636719 "/>
<path style=" stroke:none;fill-rule:nonzero;fill:rgb(14.000153%,11.999695%,12.999161%);fill-opacity:1;" d="M 276.753906 147.636719 L 278.945312 147.636719 L 278.945312 164.078125 L 276.753906 164.078125 L 276.753906 147.636719 Z M 276.753906 147.636719 "/>
<path style=" stroke:none;fill-rule:nonzero;fill:rgb(14.000153%,11.999695%,12.999161%);fill-opacity:1;" d="M 287.660156 148.777344 L 291.503906 148.777344 L 296.605469 161.496094 L 301.621094 148.777344 L 305.464844 148.777344 L 305.464844 164.078125 L 303.136719 164.078125 L 303.136719 150.839844 L 303.085938 150.839844 L 297.699219 164.078125 L 295.421875 164.078125 L 290.039062 150.839844 L 289.988281 150.839844 L 289.988281 164.078125 L 287.660156 164.078125 L 287.660156 148.777344 Z M 287.660156 148.777344 "/>
<path style=" stroke:none;fill-rule:nonzero;fill:rgb(14.000153%,11.999695%,12.999161%);fill-opacity:1;" d="M 316.066406 157.414062 C 316.066406 155.703125 315 154.300781 313.105469 154.300781 C 310.964844 154.300781 310.082031 155.96875 309.914062 157.414062 L 316.066406 157.414062 Z M 317.488281 163.617188 C 316.652344 163.90625 315.691406 164.34375 313.738281 164.34375 C 309.523438 164.34375 307.582031 161.933594 307.582031 158.292969 C 307.582031 154.980469 309.796875 152.636719 313.15625 152.636719 C 317.113281 152.636719 318.402344 155.355469 318.402344 158.953125 L 309.914062 158.953125 C 309.914062 161.167969 311.753906 162.675781 313.828125 162.675781 C 315.273438 162.675781 316.953125 161.972656 317.488281 161.558594 L 317.488281 163.617188 Z M 317.488281 163.617188 "/>
<path style=" stroke:none;fill-rule:nonzero;fill:rgb(14.000153%,11.999695%,12.999161%);fill-opacity:1;" d="M 325.109375 162.675781 C 327.582031 162.675781 328.605469 160.375 328.605469 158.511719 C 328.605469 156.425781 327.460938 154.300781 325.089844 154.300781 C 322.707031 154.300781 321.777344 156.402344 321.824219 158.449219 C 321.777344 160.199219 322.757812 162.675781 325.109375 162.675781 Z M 328.699219 162.5 L 328.652344 162.5 C 328.070312 163.335938 326.71875 164.34375 324.597656 164.34375 C 321.007812 164.34375 319.492188 161.339844 319.492188 158.292969 C 319.492188 155.289062 321.167969 152.636719 324.621094 152.636719 C 326.695312 152.636719 327.882812 153.402344 328.554688 154.433594 L 328.605469 154.433594 L 328.605469 147.636719 L 330.792969 147.636719 L 330.792969 164.078125 L 328.699219 164.078125 L 328.699219 162.5 Z M 328.699219 162.5 "/>
<path style=" stroke:none;fill-rule:nonzero;fill:rgb(14.000153%,11.999695%,12.999161%);fill-opacity:1;" d="M 333.753906 152.898438 L 335.949219 152.898438 L 335.949219 164.078125 L 333.753906 164.078125 L 333.753906 152.898438 Z M 336.082031 150.398438 L 333.613281 150.398438 L 333.613281 148.074219 L 336.082031 148.074219 L 336.082031 150.398438 Z M 336.082031 150.398438 "/>
<path style=" stroke:none;fill-rule:nonzero;fill:rgb(14.000153%,11.999695%,12.999161%);fill-opacity:1;" d="M 346.453125 154.785156 C 345.617188 154.457031 344.777344 154.300781 344.078125 154.300781 C 341.628906 154.300781 340.253906 156.367188 340.253906 158.488281 C 340.253906 160.484375 341.398438 162.675781 344.214844 162.675781 C 344.964844 162.675781 345.894531 162.457031 346.570312 162.042969 L 346.734375 163.886719 C 345.828125 164.277344 344.777344 164.34375 343.984375 164.34375 C 340.394531 164.34375 337.925781 161.691406 337.925781 158.488281 C 337.925781 155.09375 340.347656 152.636719 343.984375 152.636719 C 344.867188 152.636719 346.011719 152.835938 346.636719 153.074219 L 346.453125 154.785156 Z M 346.453125 154.785156 "/>
<path style=" stroke:none;fill-rule:nonzero;fill:rgb(14.000153%,11.999695%,12.999161%);fill-opacity:1;" d="M 355.261719 158.753906 C 354.796875 158.753906 354.328125 158.710938 353.863281 158.710938 C 352.675781 158.710938 349.738281 158.886719 349.738281 160.855469 C 349.738281 162.042969 350.953125 162.675781 351.953125 162.675781 C 354.121094 162.675781 355.261719 161.40625 355.261719 159.742188 L 355.261719 158.753906 Z M 348.757812 153.6875 C 349.855469 153.074219 351.164062 152.636719 352.675781 152.636719 C 356.074219 152.636719 357.453125 154.214844 357.453125 157.261719 L 357.453125 161.886719 C 357.453125 163.164062 357.496094 163.753906 357.546875 164.078125 L 355.492188 164.078125 L 355.492188 162.632812 L 355.449219 162.632812 C 354.9375 163.3125 353.773438 164.34375 351.769531 164.34375 C 349.203125 164.34375 347.40625 163.292969 347.40625 160.855469 C 347.40625 158.046875 350.667969 157.171875 352.933594 157.171875 C 353.796875 157.171875 354.398438 157.171875 355.261719 157.21875 C 355.261719 155.289062 354.515625 154.300781 352.324219 154.300781 C 351.097656 154.300781 349.765625 154.738281 348.875 155.441406 L 348.757812 153.6875 Z M 348.757812 153.6875 "/>
<path style=" stroke:none;fill-rule:nonzero;fill:rgb(14.000153%,11.999695%,12.999161%);fill-opacity:1;" d="M 360.390625 147.636719 L 362.582031 147.636719 L 362.582031 164.078125 L 360.390625 164.078125 L 360.390625 147.636719 Z M 360.390625 147.636719 "/>
<path style=" stroke:none;fill-rule:nonzero;fill:rgb(14.000153%,11.999695%,12.999161%);fill-opacity:1;" d="M 382.410156 151.300781 C 381.378906 150.730469 380.246094 150.445312 379.054688 150.445312 C 375.304688 150.445312 372.808594 152.984375 372.808594 156.425781 C 372.808594 160.023438 375.554688 162.414062 378.9375 162.414062 C 380.101562 162.414062 381.667969 162.128906 382.476562 161.667969 L 382.613281 163.796875 C 381.378906 164.277344 379.867188 164.34375 378.914062 164.34375 C 373.765625 164.34375 370.339844 161.230469 370.339844 156.367188 C 370.339844 151.652344 373.972656 148.511719 378.9375 148.511719 C 380.195312 148.511719 381.433594 148.6875 382.597656 149.171875 L 382.410156 151.300781 Z M 382.410156 151.300781 "/>
<path style=" stroke:none;fill-rule:nonzero;fill:rgb(14.000153%,11.999695%,12.999161%);fill-opacity:1;" d="M 389.421875 162.675781 C 391.988281 162.675781 393.128906 160.484375 393.128906 158.488281 C 393.128906 156.367188 391.753906 154.300781 389.421875 154.300781 C 387.074219 154.300781 385.695312 156.367188 385.695312 158.488281 C 385.695312 160.484375 386.839844 162.675781 389.421875 162.675781 Z M 389.421875 152.636719 C 393.035156 152.636719 395.460938 155.09375 395.460938 158.488281 C 395.460938 161.691406 392.992188 164.34375 389.421875 164.34375 C 385.835938 164.34375 383.367188 161.691406 383.367188 158.488281 C 383.367188 155.09375 385.789062 152.636719 389.421875 152.636719 "/>
<path style=" stroke:none;fill-rule:nonzero;fill:rgb(14.000153%,11.999695%,12.999161%);fill-opacity:1;" d="M 397.464844 147.636719 L 399.652344 147.636719 L 399.652344 164.078125 L 397.464844 164.078125 L 397.464844 147.636719 Z M 397.464844 147.636719 "/>
<path style=" stroke:none;fill-rule:nonzero;fill:rgb(14.000153%,11.999695%,12.999161%);fill-opacity:1;" d="M 402.730469 147.636719 L 404.917969 147.636719 L 404.917969 164.078125 L 402.730469 164.078125 L 402.730469 147.636719 Z M 402.730469 147.636719 "/>
<path style=" stroke:none;fill-rule:nonzero;fill:rgb(14.000153%,11.999695%,12.999161%);fill-opacity:1;" d="M 415.40625 157.414062 C 415.40625 155.703125 414.335938 154.300781 412.449219 154.300781 C 410.304688 154.300781 409.417969 155.96875 409.253906 157.414062 L 415.40625 157.414062 Z M 416.828125 163.617188 C 415.988281 163.90625 415.035156 164.34375 413.074219 164.34375 C 408.859375 164.34375 406.929688 161.933594 406.929688 158.292969 C 406.929688 154.980469 409.132812 152.636719 412.492188 152.636719 C 416.460938 152.636719 417.738281 155.355469 417.738281 158.953125 L 409.253906 158.953125 C 409.253906 161.167969 411.101562 162.675781 413.171875 162.675781 C 414.609375 162.675781 416.292969 161.972656 416.828125 161.558594 L 416.828125 163.617188 Z M 416.828125 163.617188 "/>
<path style=" stroke:none;fill-rule:nonzero;fill:rgb(14.000153%,11.999695%,12.999161%);fill-opacity:1;" d="M 427.78125 158.625 C 427.78125 156.296875 426.640625 154.300781 424.3125 154.300781 C 422.09375 154.300781 421 156.558594 421 158.46875 C 421 160.570312 422.257812 162.414062 424.3125 162.414062 C 426.363281 162.414062 427.78125 160.703125 427.78125 158.625 Z M 429.96875 163.601562 C 429.96875 166.996094 428.109375 168.949219 423.839844 168.949219 C 422.585938 168.949219 421.492188 168.792969 419.578125 168.179688 L 419.8125 166.273438 C 421.492188 166.996094 422.496094 167.28125 424.101562 167.28125 C 426.40625 167.28125 427.78125 165.8125 427.78125 163.445312 L 427.78125 162.347656 L 427.734375 162.347656 C 426.804688 163.511719 425.265625 164.078125 423.75 164.078125 C 420.34375 164.078125 418.667969 161.472656 418.667969 158.574219 C 418.667969 155.703125 420.394531 152.636719 423.984375 152.636719 C 426.082031 152.636719 427.246094 153.359375 427.898438 154.566406 L 427.945312 154.566406 L 427.945312 152.898438 L 429.96875 152.898438 L 429.96875 163.601562 Z M 429.96875 163.601562 "/>
<path style=" stroke:none;fill-rule:nonzero;fill:rgb(14.000153%,11.999695%,12.999161%);fill-opacity:1;" d="M 440.179688 157.414062 C 440.179688 155.703125 439.105469 154.300781 437.214844 154.300781 C 435.078125 154.300781 434.191406 155.96875 434.027344 157.414062 L 440.179688 157.414062 Z M 441.597656 163.617188 C 440.765625 163.90625 439.808594 164.34375 437.851562 164.34375 C 433.628906 164.34375 431.699219 161.933594 431.699219 158.292969 C 431.699219 154.980469 433.914062 152.636719 437.269531 152.636719 C 441.230469 152.636719 442.511719 155.355469 442.511719 158.953125 L 434.027344 158.953125 C 434.027344 161.167969 435.867188 162.675781 437.945312 162.675781 C 439.390625 162.675781 441.066406 161.972656 441.597656 161.558594 L 441.597656 163.617188 Z M 441.597656 163.617188 "/>
<path style=" stroke:none;fill-rule:nonzero;fill:rgb(14.000153%,11.999695%,12.999161%);fill-opacity:1;" d="M 449.730469 152.898438 L 451.925781 152.898438 L 451.925781 164.078125 L 449.730469 164.078125 L 449.730469 152.898438 Z M 452.066406 150.398438 L 449.59375 150.398438 L 449.59375 148.074219 L 452.066406 148.074219 L 452.066406 150.398438 Z M 452.066406 150.398438 "/>
<path style=" stroke:none;fill-rule:nonzero;fill:rgb(14.000153%,11.999695%,12.999161%);fill-opacity:1;" d="M 454.699219 152.898438 L 456.816406 152.898438 L 456.816406 154.675781 L 456.863281 154.675781 C 457.511719 153.402344 459.101562 152.636719 460.757812 152.636719 C 463.832031 152.636719 465.207031 154.433594 465.207031 157.4375 L 465.207031 164.078125 L 463.015625 164.078125 L 463.015625 158.292969 C 463.015625 155.683594 462.410156 154.410156 460.496094 154.300781 C 458.003906 154.300781 456.882812 156.1875 456.882812 158.90625 L 456.882812 164.078125 L 454.699219 164.078125 L 454.699219 152.898438 Z M 454.699219 152.898438 "/>
<path style=" stroke:none;fill-rule:nonzero;fill:rgb(14.000153%,11.999695%,12.999161%);fill-opacity:1;" d="M 480.144531 162.414062 C 483.898438 162.414062 485.5 159.476562 485.5 156.425781 C 485.5 153.3125 483.734375 150.421875 480.144531 150.445312 C 476.554688 150.421875 474.785156 153.3125 474.785156 156.425781 C 474.785156 159.476562 476.394531 162.414062 480.144531 162.414062 Z M 481.449219 164.257812 C 481.03125 164.320312 480.609375 164.34375 480.144531 164.34375 C 475.179688 164.34375 472.3125 161.078125 472.3125 156.425781 C 472.3125 151.890625 475.203125 148.511719 480.144531 148.511719 C 485.085938 148.511719 487.980469 151.890625 487.980469 156.425781 C 487.980469 159.851562 486.414062 162.519531 483.59375 163.6875 L 487.367188 166.90625 L 484.484375 166.90625 L 481.449219 164.257812 Z M 481.449219 164.257812 "/>
<path style=" stroke:none;fill-rule:nonzero;fill:rgb(14.000153%,11.999695%,12.999161%);fill-opacity:1;" d="M 496.898438 158.753906 C 495.585938 158.753906 491.378906 158.386719 491.378906 160.855469 C 491.378906 163.464844 496.898438 163.433594 496.898438 159.742188 L 496.898438 158.753906 Z M 490.398438 153.6875 C 493.332031 152.046875 499.089844 151.5625 499.089844 157.261719 L 499.183594 164.078125 L 497.132812 164.078125 L 497.132812 162.632812 L 497.085938 162.632812 C 495.097656 165.261719 489.046875 165.078125 489.046875 160.855469 C 489.046875 157.09375 494.167969 157.074219 496.898438 157.21875 C 496.898438 152.875 491.957031 154.292969 490.515625 155.441406 L 490.398438 153.6875 Z M 490.398438 153.6875 "/>
<path style=" stroke:none;fill-rule:nonzero;fill:rgb(14.000153%,11.999695%,12.999161%);fill-opacity:1;" d="M 507.875 154.566406 L 504.730469 154.566406 L 504.730469 160.683594 C 504.730469 161.972656 505.570312 162.675781 506.570312 162.675781 C 507.246094 162.675781 507.734375 162.480469 508.0625 162.285156 L 508.0625 164.042969 C 507.574219 164.164062 506.898438 164.34375 506.195312 164.34375 C 503.9375 164.34375 502.539062 163.335938 502.539062 161.097656 L 502.539062 154.566406 L 499.859375 154.566406 L 499.859375 152.898438 L 502.539062 152.898438 L 502.539062 150.3125 L 504.730469 149.65625 L 504.730469 152.898438 L 507.875 152.898438 L 507.875 154.566406 Z M 507.875 154.566406 "/>
<path style=" stroke:none;fill-rule:nonzero;fill:rgb(14.000153%,11.999695%,12.999161%);fill-opacity:1;" d="M 516.523438 158.753906 C 503.847656 158.753906 516.523438 167.691406 516.523438 158.753906 Z M 510.019531 153.6875 C 520.816406 147.648438 518.558594 162.414062 518.804688 164.078125 L 516.753906 164.078125 L 516.753906 162.632812 L 516.707031 162.632812 C 511.621094 169.375 501.386719 156.425781 516.523438 157.21875 C 516.523438 152.824219 511.519531 154.339844 510.140625 155.441406 L 510.019531 153.6875 Z M 510.019531 153.6875 "/>
<path style=" stroke:none;fill-rule:nonzero;fill:rgb(14.000153%,11.999695%,12.999161%);fill-opacity:1;" d="M 521.253906 152.898438 L 523.304688 152.898438 L 523.304688 154.628906 L 523.351562 154.628906 C 523.929688 153.46875 525.1875 152.636719 526.449219 152.636719 C 527.105469 152.636719 527.425781 152.703125 527.898438 152.789062 L 527.898438 154.628906 C 527.496094 154.480469 527.050781 154.433594 526.683594 154.433594 C 524.726562 154.433594 523.441406 156.1875 523.441406 158.992188 L 523.441406 164.078125 L 521.253906 164.078125 L 521.253906 152.898438 Z M 521.253906 152.898438 "/>
<path style=" stroke:none;fill-rule:nonzero;fill:rgb(75.001144%,20%,25.000381%);fill-opacity:1;" d="M 123.507812 140.398438 L 123.601562 140.582031 C 123.574219 140.5 123.5625 140.464844 123.507812 140.398438 Z M 106.074219 121.566406 C 106.289062 121.722656 106.519531 121.859375 106.757812 121.984375 L 106.074219 121.566406 Z M 104.351562 142.796875 L 102.621094 141.683594 L 104.351562 140.875 L 104.351562 142.796875 Z M 104.351562 143.875 L 98.703125 143.875 C 98.066406 143.039062 97.484375 141.355469 96.414062 141.871094 C 96.121094 140.273438 94.125 140.066406 93.898438 141.875 L 92.488281 141.875 L 91.886719 143.875 L 90.203125 143.875 L 90.199219 139.972656 L 91.367188 140.730469 L 90.542969 141.058594 L 90.8125 141.730469 C 90.8125 141.730469 96.96875 139.265625 97.292969 139.132812 C 98.480469 139.886719 104.332031 143.660156 104.351562 143.632812 L 104.351562 143.875 Z M 96.507812 142.398438 L 96.820312 142.253906 L 98.632812 144.636719 L 96.949219 145.03125 L 96.507812 142.398438 Z M 94.363281 142.394531 L 94.480469 141.332031 L 95.800781 141.332031 L 95.984375 142.394531 L 94.363281 142.394531 Z M 96.085938 143.011719 C 96.167969 143.464844 96.242188 143.941406 96.316406 144.367188 L 94.140625 144.367188 C 94.183594 143.957031 94.234375 143.476562 94.292969 143.011719 L 96.085938 143.011719 Z M 92.632812 143.191406 L 92.871094 142.394531 L 93.84375 142.394531 C 93.8125 142.660156 93.777344 142.933594 93.753906 143.191406 L 92.632812 143.191406 Z M 93.679688 143.8125 C 93.625 144.285156 93.585938 144.660156 93.570312 144.796875 L 92.144531 144.796875 C 92.203125 144.601562 92.324219 144.222656 92.445312 143.8125 L 93.679688 143.8125 Z M 104.34375 144.929688 L 102.527344 147.363281 L 96.734375 147.363281 L 96.734375 148.082031 L 101.398438 148.082031 C 99.753906 149.101562 97.847656 150.164062 97.238281 150.5 C 94.960938 149.070312 90.261719 147.136719 90.203125 144.601562 L 91.671875 144.601562 L 91.457031 145.316406 C 93.257812 145.316406 94.59375 144.984375 96.417969 144.984375 L 96.53125 145.644531 L 91.453125 145.644531 L 91.738281 146.355469 C 94.144531 146.355469 97.722656 147.128906 99.6875 145.644531 L 96.605469 145.644531 L 99.523438 144.960938 L 99.253906 144.601562 L 104.351562 144.601562 L 104.34375 144.929688 Z M 98.453125 138.460938 C 98.453125 138.628906 98.402344 138.789062 98.332031 138.941406 L 97.375 138.332031 L 96.25 138.78125 C 95.796875 137.179688 98.453125 136.789062 98.453125 138.460938 Z M 90.199219 138.546875 L 94.832031 138.546875 L 94.832031 137.929688 L 90.199219 137.929688 L 90.199219 134.945312 C 91.757812 134.945312 93.847656 136.59375 95.230469 137.3125 L 95.515625 136.765625 L 92.007812 134.945312 L 95.234375 134.945312 L 96.167969 136.449219 L 96.6875 136.117188 L 95.960938 134.945312 L 98.550781 134.945312 L 97.835938 136.078125 L 98.359375 136.40625 L 99.285156 134.945312 L 102.558594 134.945312 L 99.125 136.730469 L 99.410156 137.277344 C 100.765625 136.574219 102.820312 134.945312 104.34375 134.945312 L 104.351562 137.929688 L 99.824219 137.929688 L 99.824219 138.546875 L 104.351562 138.546875 L 104.351562 140.078125 L 101.902344 141.222656 L 98.886719 139.296875 C 100.464844 136.316406 94.574219 135.816406 95.65625 139.015625 L 92.1875 140.402344 L 90.199219 139.117188 L 90.199219 138.546875 Z M 89.375 134.121094 C 89.367188 146.03125 87.050781 145.167969 97.222656 151.457031 C 107.429688 145.863281 105.1875 145.835938 105.171875 134.121094 L 89.375 134.121094 Z M 82.683594 144.933594 C 82.671875 145.265625 82.628906 146.003906 81.34375 147.007812 L 81.34375 139.230469 L 82.691406 139.230469 L 82.683594 144.933594 Z M 68.53125 138.507812 C 68.53125 137.292969 68.539062 136.058594 68.539062 134.945312 L 82.683594 134.945312 L 82.691406 138.507812 L 68.53125 138.507812 Z M 80.570312 147.550781 C 80.148438 147.832031 79.679688 148.121094 79.203125 148.410156 L 79.203125 139.230469 L 80.570312 139.230469 L 80.570312 147.550781 Z M 78.425781 148.871094 C 77.953125 149.152344 77.480469 149.421875 77.066406 149.660156 L 77.066406 139.230469 L 78.425781 139.230469 L 78.425781 148.871094 Z M 76.292969 150.097656 L 75.570312 150.5 C 75.503906 150.449219 75.261719 150.304688 74.925781 150.097656 L 74.925781 139.230469 L 76.292969 139.230469 L 76.292969 150.097656 Z M 74.152344 149.621094 C 73.726562 149.351562 73.253906 149.0625 72.789062 148.773438 L 72.789062 139.230469 L 74.152344 139.230469 L 74.152344 149.621094 Z M 72.015625 148.296875 L 70.648438 147.453125 L 70.648438 139.230469 L 72.015625 139.230469 L 72.015625 148.296875 Z M 69.871094 146.898438 C 67.566406 145.035156 68.53125 143.308594 68.53125 139.230469 L 69.871094 139.230469 L 69.871094 146.898438 Z M 67.714844 134.121094 C 67.703125 146.03125 65.382812 145.167969 75.558594 151.457031 C 85.691406 145.332031 83.53125 146.5625 83.503906 134.121094 L 67.714844 134.121094 Z M 84.578125 161.101562 L 84.71875 161.117188 L 84.714844 161.9375 L 76.476562 162.359375 L 76.480469 161.539062 C 79.066406 161.371094 81.976562 160.90625 84.578125 161.101562 Z M 88.375 164.59375 L 88.199219 164.617188 L 88.199219 163.800781 L 96.4375 164.214844 L 96.445312 165.039062 L 88.375 164.59375 Z M 86.445312 194.207031 C 66.160156 194.207031 49.660156 177.710938 49.660156 157.425781 C 49.660156 137.140625 66.160156 120.632812 86.445312 120.632812 C 106.726562 120.632812 123.230469 137.140625 123.230469 157.425781 C 123.230469 177.710938 106.726562 194.207031 86.445312 194.207031 Z M 86.445312 119.398438 C 65.480469 119.398438 48.421875 136.457031 48.421875 157.425781 C 48.421875 178.390625 65.480469 195.445312 86.445312 195.445312 C 107.414062 195.445312 124.472656 178.390625 124.472656 157.425781 C 124.472656 136.457031 107.414062 119.398438 86.445312 119.398438 Z M 88.375 168.800781 L 88.199219 168.824219 L 88.199219 168.003906 L 96.4375 168.421875 L 96.445312 169.242188 L 88.375 168.800781 Z M 84.578125 159.570312 L 84.71875 159.585938 L 84.714844 160.40625 L 76.476562 160.828125 L 76.480469 160.007812 C 78.753906 159.863281 82.28125 159.164062 84.578125 159.570312 Z M 88.375 173.03125 L 88.199219 173.054688 L 88.199219 172.246094 L 96.4375 172.660156 L 96.445312 173.476562 L 88.375 173.03125 Z M 86.449219 192.859375 C 84.109375 191.789062 62.613281 181.519531 62.613281 164.4375 L 62.613281 131.792969 L 110.238281 131.789062 L 110.242188 165.039062 C 110.242188 181.386719 88.792969 191.773438 86.449219 192.859375 Z M 61.375 130.558594 L 61.371094 164.4375 C 61.371094 178.082031 75.082031 189.488281 86.457031 194.207031 C 97.609375 189.445312 111.480469 178.6875 111.480469 165.039062 L 111.472656 130.554688 L 61.375 130.558594 Z M 100.441406 161.007812 L 101.976562 161.007812 L 101.976562 162.539062 L 100.441406 162.539062 L 100.441406 161.007812 Z M 100.441406 167.863281 L 101.976562 167.863281 L 101.976562 169.394531 L 100.441406 169.394531 L 100.441406 167.863281 Z M 100.441406 174.722656 L 101.976562 174.722656 L 101.976562 176.257812 L 100.441406 176.257812 L 100.441406 174.722656 Z M 86.871094 191.117188 L 86.871094 179.917969 C 87.609375 179.792969 88.042969 179.375 88.246094 178.992188 L 100.441406 178.992188 L 100.441406 177.082031 L 102.804688 177.082031 L 102.804688 173.894531 L 100.441406 173.894531 L 100.441406 170.222656 L 102.804688 170.222656 L 102.804688 167.039062 L 100.441406 167.039062 L 100.441406 163.359375 L 102.804688 163.359375 L 102.804688 160.179688 L 100.441406 160.179688 L 100.441406 158.308594 L 98.59375 158.308594 L 98.59375 157.554688 C 95.667969 157.539062 89.339844 156.046875 86.878906 157.503906 L 86.878906 153.394531 L 108.867188 153.394531 L 108.867188 164.773438 C 108.867188 179.804688 90.089844 189.558594 86.871094 191.117188 Z M 86.453125 179.15625 C 85.332031 179.15625 85.40625 178.632812 85.292969 178.175781 L 73.332031 178.167969 L 73.332031 159.132812 L 74.378906 159.132812 L 74.371094 177.417969 L 98.613281 177.417969 L 98.601562 159.132812 L 99.621094 159.132812 L 99.621094 178.167969 L 87.671875 178.167969 C 87.539062 178.628906 87.59375 179.15625 86.453125 179.15625 Z M 72.492188 176.253906 L 70.957031 176.253906 L 70.957031 174.71875 L 72.492188 174.71875 L 72.492188 176.253906 Z M 72.492188 169.394531 L 70.957031 169.394531 L 70.957031 167.863281 L 72.492188 167.863281 L 72.492188 169.394531 Z M 72.492188 162.539062 L 70.957031 162.539062 L 70.957031 161.007812 L 72.492188 161.007812 L 72.492188 162.539062 Z M 86.050781 158.5 L 86.050781 176.980469 C 84.289062 174.972656 77.855469 176.632812 75.203125 176.605469 L 75.203125 158.371094 C 77.054688 158.371094 84.976562 156.851562 86.050781 158.5 Z M 86.050781 191.125 C 82.875 189.617188 63.914062 179.941406 63.914062 164.207031 L 63.914062 153.394531 L 86.050781 153.394531 L 86.050781 157.472656 C 83.496094 156.082031 77.355469 157.539062 74.371094 157.554688 L 74.378906 158.308594 L 72.507812 158.308594 L 72.507812 160.179688 L 70.136719 160.179688 L 70.136719 163.359375 L 72.507812 163.359375 L 72.507812 167.039062 L 70.136719 167.039062 L 70.136719 170.222656 L 72.507812 170.222656 L 72.507812 173.894531 L 70.136719 173.894531 L 70.136719 177.082031 L 72.507812 177.082031 L 72.507812 178.992188 L 84.695312 178.992188 C 84.886719 179.375 85.316406 179.796875 86.050781 179.917969 L 86.050781 191.125 Z M 86.878906 158.570312 C 87.550781 156.9375 96.183594 158.371094 97.773438 158.371094 L 97.773438 176.605469 C 95.0625 176.640625 88.773438 174.980469 86.878906 176.964844 L 86.878906 158.570312 Z M 63.914062 133.257812 L 108.863281 133.257812 L 108.867188 152.160156 L 63.914062 152.160156 L 63.914062 133.257812 Z M 63.402344 132.746094 L 63.402344 164.207031 C 63.402344 176.578125 75.960938 187.65625 86.457031 191.875 C 96.601562 187.667969 109.378906 176.941406 109.378906 164.773438 L 109.378906 132.746094 L 63.402344 132.746094 Z M 88.375 166.121094 L 88.199219 166.144531 L 88.199219 165.332031 L 96.4375 165.746094 L 96.445312 166.570312 L 88.375 166.121094 Z M 84.578125 173.753906 L 84.71875 173.769531 L 84.714844 174.585938 L 76.476562 175.003906 L 76.480469 174.191406 C 79.054688 174.035156 82.003906 173.542969 84.578125 173.753906 Z M 84.578125 172.226562 L 84.71875 172.246094 L 84.714844 173.054688 L 76.476562 173.476562 L 76.480469 172.660156 C 79.050781 172.496094 81.992188 172.015625 84.578125 172.226562 Z M 88.375 160.382812 L 88.199219 160.40625 L 88.199219 159.585938 L 96.4375 160.007812 L 96.445312 160.828125 L 88.375 160.382812 Z M 88.375 174.5625 L 88.199219 174.585938 L 88.199219 173.769531 L 96.4375 174.191406 L 96.445312 175.003906 L 88.375 174.5625 Z M 88.375 170.332031 L 88.199219 170.355469 L 88.199219 169.53125 L 96.4375 169.953125 L 96.445312 170.78125 L 88.375 170.332031 Z M 84.578125 165.3125 L 84.71875 165.332031 L 84.714844 166.144531 L 76.476562 166.570312 L 76.480469 165.746094 C 79.074219 165.597656 81.988281 165.117188 84.578125 165.3125 Z M 84.578125 163.789062 L 84.71875 163.800781 L 84.714844 164.617188 L 76.476562 165.039062 L 76.484375 164.214844 L 84.578125 163.789062 Z M 88.375 161.917969 L 88.199219 161.9375 L 88.199219 161.117188 L 96.4375 161.539062 L 96.445312 162.359375 L 88.375 161.917969 Z M 84.578125 167.988281 L 84.71875 168.003906 L 84.714844 168.824219 L 76.476562 169.242188 L 76.484375 168.421875 C 78.757812 168.28125 82.292969 167.585938 84.578125 167.988281 Z M 84.578125 169.535156 L 84.71875 169.554688 L 84.714844 170.371094 L 76.476562 170.792969 L 76.480469 169.972656 L 84.578125 169.535156 Z M 86.445312 207.390625 C 58.894531 207.390625 36.476562 184.972656 36.476562 157.429688 C 36.476562 129.875 58.894531 107.457031 86.445312 107.457031 C 114 107.457031 136.417969 130.402344 136.417969 157.429688 C 136.417969 184.972656 114 207.390625 86.445312 207.390625 Z M 86.445312 106.21875 C 58.214844 106.21875 35.242188 129.191406 35.242188 157.429688 C 35.242188 185.652344 58.214844 208.628906 86.445312 208.628906 C 114.679688 208.628906 137.652344 185.652344 137.652344 157.429688 C 137.652344 129.191406 114.679688 106.21875 86.445312 106.21875 Z M 86.445312 209.453125 C 57.757812 209.453125 34.417969 186.113281 34.417969 157.429688 C 34.417969 128.734375 57.757812 105.394531 86.445312 105.394531 C 115.136719 105.394531 138.472656 128.734375 138.472656 157.429688 C 138.472656 186.113281 115.136719 209.453125 86.445312 209.453125 Z M 86.445312 104.882812 C 57.476562 104.882812 33.902344 128.453125 33.902344 157.429688 C 33.902344 186.394531 57.476562 209.96875 86.445312 209.96875 C 115.414062 209.96875 138.988281 186.394531 138.988281 157.429688 C 138.988281 128.453125 115.414062 104.882812 86.445312 104.882812 Z M 86.445312 196.398438 C 64.953125 196.398438 47.472656 178.917969 47.472656 157.429688 C 47.472656 135.9375 64.953125 118.449219 86.445312 118.449219 C 107.933594 118.449219 125.417969 135.9375 125.417969 157.425781 C 125.417969 178.914062 107.933594 196.398438 86.445312 196.398438 Z M 125.933594 157.425781 C 125.933594 135.648438 108.222656 117.9375 86.445312 117.9375 C 64.671875 117.9375 46.957031 135.648438 46.957031 157.429688 C 46.957031 179.199219 64.671875 196.910156 86.445312 196.910156 C 108.222656 196.910156 125.933594 179.199219 125.933594 157.425781 "/>
<path style=" stroke:none;fill-rule:nonzero;fill:rgb(75.001144%,20%,25.000381%);fill-opacity:1;" d="M 38.203125 161.042969 L 45.027344 161.636719 L 45.246094 162.867188 L 40.679688 165.011719 L 45.679688 165.347656 L 45.894531 166.554688 L 39.691406 169.484375 L 39.472656 168.238281 L 44 166.140625 L 39.042969 165.804688 L 38.832031 164.613281 L 43.355469 162.476562 L 38.386719 162.078125 L 38.203125 161.042969 Z M 45.042969 154.671875 L 44.894531 158.972656 L 38.28125 158.742188 L 38.429688 154.484375 L 39.414062 154.519531 L 39.304688 157.582031 L 41.097656 157.644531 L 41.183594 155.183594 L 42.144531 155.21875 L 42.058594 157.679688 L 43.910156 157.742188 L 44.015625 154.636719 L 45.042969 154.671875 Z M 45.300781 152.433594 L 45.136719 153.617188 L 38.582031 152.695312 L 38.746094 151.511719 L 45.300781 152.433594 Z M 46.214844 147.042969 L 45.4375 151.039062 L 38.941406 149.777344 L 39.179688 148.542969 L 44.617188 149.601562 L 45.152344 146.835938 L 46.214844 147.042969 Z M 47.839844 142.351562 L 46.511719 146.203125 L 40.257812 144.046875 L 40.664062 142.859375 L 45.902344 144.660156 L 46.816406 142 L 47.839844 142.351562 Z M 49.054688 134.859375 L 49.730469 133.976562 C 53.726562 137.003906 46.472656 141.183594 44.359375 135.925781 C 43.472656 133.71875 45.804688 132 47.839844 132.839844 L 47.371094 133.847656 C 42.570312 132.148438 47.613281 139.96875 49.578125 136.699219 C 49.957031 136.066406 49.625 135.273438 49.054688 134.859375 Z M 53.6875 132.378906 C 50.058594 136.855469 44.710938 126.933594 50.457031 127.070312 C 52.90625 127.128906 55.488281 130.15625 53.6875 132.378906 Z M 52.945312 131.765625 C 55.894531 128.121094 44.507812 126.871094 50.109375 131.40625 C 51.027344 132.152344 52.164062 132.730469 52.945312 131.765625 Z M 59.828125 125.695312 L 58.90625 126.554688 L 56.300781 125.265625 L 55.070312 126.410156 L 56.925781 128.402344 L 56.054688 129.214844 L 51.542969 124.375 C 56.679688 119.582031 57.804688 122.597656 56.984375 124.347656 L 59.828125 125.695312 Z M 54.421875 125.710938 C 56.871094 123.425781 55.515625 121.964844 53.0625 124.253906 L 54.421875 125.710938 Z M 64.90625 122.054688 L 63.957031 122.71875 L 58.816406 120.402344 L 61.597656 124.371094 L 60.808594 124.925781 L 57.015625 119.503906 L 58.09375 118.746094 L 62.984375 120.953125 L 60.339844 117.175781 L 61.109375 116.636719 L 64.90625 122.054688 Z M 69.996094 119.460938 L 66.128906 121.347656 L 63.226562 115.398438 L 67.054688 113.535156 L 67.488281 114.417969 L 64.730469 115.761719 L 65.519531 117.375 L 67.730469 116.292969 L 68.152344 117.15625 L 65.9375 118.238281 L 66.75 119.902344 L 69.542969 118.539062 L 69.996094 119.460938 Z M 74.773438 117.699219 L 70.902344 118.960938 L 68.855469 112.664062 L 70.050781 112.277344 L 71.761719 117.542969 L 74.441406 116.671875 L 74.773438 117.699219 Z M 79.65625 116.597656 L 75.671875 117.445312 L 74.296875 110.972656 L 75.523438 110.710938 L 76.675781 116.125 L 79.429688 115.539062 L 79.65625 116.597656 Z M 89.414062 115.980469 L 88.195312 116 L 88.09375 110.207031 L 86.363281 116.03125 L 85.738281 116.042969 L 83.792969 110.28125 L 83.894531 116.078125 L 82.921875 116.09375 L 82.804688 109.476562 L 84.671875 109.445312 L 86.132812 113.679688 L 87.421875 109.394531 L 89.296875 109.363281 L 89.414062 115.980469 Z M 95.136719 116.816406 L 90.867188 116.292969 L 91.675781 109.726562 L 95.902344 110.242188 L 95.78125 111.222656 L 92.738281 110.847656 L 92.519531 112.628906 L 94.964844 112.929688 L 94.847656 113.882812 L 92.402344 113.582031 L 92.175781 115.417969 L 95.261719 115.796875 L 95.136719 116.816406 Z M 96.144531 117.078125 L 97.859375 110.6875 C 106.019531 112.875 101.679688 118.5625 98.242188 117.640625 L 96.144531 117.078125 Z M 97.582031 116.457031 C 101.226562 117.433594 102.472656 112.898438 98.800781 111.914062 L 97.582031 116.457031 Z M 103.433594 119.566406 L 102.34375 119.082031 L 105.035156 113.035156 L 106.125 113.523438 L 103.433594 119.566406 Z M 109.113281 119.902344 L 110.007812 120.5625 C 107.050781 124.613281 102.742188 117.433594 107.964844 115.230469 C 110.15625 114.304688 111.914062 116.605469 111.109375 118.65625 L 110.09375 118.203125 C 111.707031 113.371094 103.980469 118.554688 107.28125 120.457031 C 107.921875 120.828125 108.707031 120.480469 109.113281 119.902344 Z M 113.863281 126.023438 L 112.847656 125.257812 L 113.371094 123.679688 L 111.339844 122.148438 L 109.976562 123.09375 L 109.164062 122.480469 L 114.902344 118.519531 L 116.074219 119.402344 L 113.863281 126.023438 Z M 113.691406 122.726562 L 114.699219 119.785156 L 112.152344 121.5625 L 113.691406 122.726562 Z M 117.34375 129.40625 L 114.363281 126.628906 L 118.878906 121.789062 L 119.796875 122.648438 L 116.019531 126.695312 L 118.082031 128.617188 L 117.34375 129.40625 Z M 123.542969 133.726562 L 124.09375 134.695312 C 119.746094 137.191406 118.730469 128.882812 124.394531 128.992188 C 126.773438 129.035156 127.445312 131.851562 125.875 133.398438 L 125.132812 132.574219 C 128.570312 128.816406 119.40625 130.40625 121.644531 133.488281 C 122.078125 134.085938 122.9375 134.089844 123.542969 133.726562 Z M 123.796875 139.03125 C 121.179688 133.894531 132.417969 133.042969 129.957031 138.238281 C 128.910156 140.453125 125.09375 141.578125 123.796875 139.03125 Z M 124.65625 138.605469 C 126.785156 142.78125 132.5625 132.882812 126.140625 136.15625 C 125.085938 136.695312 124.09375 137.5 124.65625 138.605469 Z M 126.828125 146.460938 L 125.5 142.609375 L 131.757812 140.457031 L 132.167969 141.644531 L 126.933594 143.445312 L 127.847656 146.109375 L 126.828125 146.460938 Z M 127.917969 151.265625 L 127.003906 147.296875 L 133.449219 145.808594 L 133.734375 147.035156 L 128.335938 148.277344 L 128.972656 151.023438 L 127.917969 151.265625 Z M 128.355469 156.464844 L 127.980469 152.179688 L 134.570312 151.601562 L 134.941406 155.84375 L 133.960938 155.929688 L 133.695312 152.878906 L 131.90625 153.035156 L 132.121094 155.488281 L 131.167969 155.570312 L 130.953125 153.117188 L 129.105469 153.277344 L 129.378906 156.375 L 128.355469 156.464844 Z M 131.355469 162.789062 L 127.976562 162.554688 L 128.015625 162.027344 L 128.929688 161.726562 C 124.632812 158.804688 135.292969 154.308594 134.859375 160.488281 C 134.769531 161.753906 133.886719 162.644531 132.671875 162.800781 L 132.558594 161.753906 C 137.011719 161.007812 129.332031 155.929688 129.039062 160.089844 C 128.980469 160.953125 129.617188 161.546875 130.476562 161.605469 L 130.570312 160.242188 L 131.527344 160.308594 L 131.355469 162.789062 Z M 127.03125 168.125 L 127.777344 163.886719 L 134.296875 165.039062 L 133.554688 169.230469 L 132.585938 169.058594 L 133.117188 166.042969 L 131.351562 165.730469 L 130.925781 168.15625 L 129.980469 167.988281 L 130.40625 165.5625 L 128.582031 165.242188 L 128.042969 168.304688 L 127.03125 168.125 Z M 127.03125 168.125 "/>
<path style=" stroke:none;fill-rule:nonzero;fill:rgb(75.001144%,20%,25.000381%);fill-opacity:1;" d="M 49.707031 184.523438 L 50.300781 185.53125 C 45.703125 188.253906 44.550781 179.503906 50.535156 179.539062 C 52.5 179.550781 54.238281 182.027344 52.152344 184.144531 L 51.359375 183.289062 C 55.078125 179.113281 45.375 181.175781 47.710938 184.300781 C 48.175781 184.921875 49.078125 184.914062 49.707031 184.523438 Z M 50.78125 189.675781 C 46.789062 185.207031 57.960938 181.128906 56.824219 187.21875 C 56.375 189.632812 52.875 192.015625 50.78125 189.675781 Z M 51.542969 189.011719 C 54.800781 192.660156 58.078125 181.046875 52.390625 186.128906 C 51.476562 186.945312 50.699219 188.066406 51.542969 189.011719 Z M 57.910156 196.039062 L 56.898438 195.183594 L 57.917969 192.308594 L 56.574219 191.167969 L 54.726562 193.351562 L 53.773438 192.542969 L 58.257812 187.234375 C 65.34375 193.226562 59.070312 192.945312 58.960938 192.910156 L 57.910156 196.039062 Z M 57.21875 190.402344 C 60.339844 193.042969 61.730469 191.480469 58.570312 188.804688 L 57.21875 190.402344 Z M 63.492188 199.507812 L 62.464844 198.859375 L 62.621094 192.9375 L 59.90625 197.246094 L 59.050781 196.707031 L 62.757812 190.828125 L 63.929688 191.566406 L 63.78125 197.199219 L 66.363281 193.101562 L 67.199219 193.628906 L 63.492188 199.507812 Z M 68.925781 201.976562 L 64.777344 200.199219 L 67.515625 193.8125 L 71.625 195.574219 L 71.21875 196.523438 L 68.261719 195.257812 L 67.519531 196.988281 L 69.894531 198.007812 L 69.496094 198.933594 L 67.121094 197.914062 L 66.355469 199.699219 L 69.351562 200.988281 L 68.925781 201.976562 Z M 74.089844 203.636719 L 70.027344 202.296875 L 72.199219 195.699219 L 73.453125 196.109375 L 71.636719 201.632812 L 74.445312 202.558594 L 74.089844 203.636719 Z M 79.121094 204.683594 L 74.941406 203.777344 L 76.414062 196.988281 L 77.703125 197.265625 L 76.472656 202.949219 L 79.363281 203.574219 L 79.121094 204.683594 Z M 87.585938 198.265625 C 87.542969 200.390625 88.046875 207.519531 83.632812 204.929688 C 82.128906 204.050781 82.695312 200.773438 82.75 198.160156 L 84.03125 198.1875 C 83.808594 208.523438 86.488281 203.085938 86.5 202.707031 L 86.59375 198.242188 L 87.585938 198.265625 Z M 94.113281 204.703125 L 92.90625 204.824219 L 89.382812 200.066406 L 89.898438 205.128906 L 88.890625 205.230469 L 88.191406 198.320312 L 89.570312 198.179688 L 92.921875 202.707031 L 92.433594 197.890625 L 93.414062 197.789062 L 94.113281 204.703125 Z M 96.851562 204.171875 L 95.621094 204.40625 L 94.324219 197.582031 L 95.554688 197.347656 L 96.851562 204.171875 Z M 100.917969 203.0625 L 99.699219 203.429688 L 95.640625 197.394531 L 96.90625 197.015625 L 99.96875 201.652344 L 99.992188 196.082031 L 100.992188 195.78125 L 100.917969 203.0625 Z M 107.789062 200.320312 L 103.65625 202.140625 L 100.855469 195.78125 L 104.945312 193.980469 L 105.363281 194.925781 L 102.417969 196.222656 L 103.175781 197.945312 L 105.542969 196.90625 L 105.949219 197.828125 L 103.582031 198.867188 L 104.367188 200.648438 L 107.355469 199.332031 L 107.789062 200.320312 Z M 113.527344 197.160156 L 112.390625 197.839844 L 110 195.9375 L 108.488281 196.839844 L 109.949219 199.292969 L 108.871094 199.933594 L 105.316406 193.964844 C 113.289062 189.214844 110.976562 195.058594 110.910156 195.148438 L 113.527344 197.160156 Z M 107.972656 195.976562 C 111.484375 193.886719 110.457031 192.0625 106.902344 194.179688 L 107.972656 195.976562 Z M 112.976562 195.566406 L 113.777344 194.617188 C 115.546875 196.117188 118.847656 191.007812 113.769531 193.179688 C 108.765625 195.320312 111.285156 186.566406 114.8125 189.238281 L 114.050781 190.203125 C 112.425781 189.140625 110.003906 193.347656 114.523438 191.359375 C 119.863281 189.015625 117.039062 198.613281 112.976562 195.566406 Z M 120.128906 191.789062 L 119.210938 192.640625 L 114.488281 187.539062 L 115.410156 186.6875 L 120.128906 191.789062 Z M 122.835938 188.988281 L 121.929688 189.984375 L 117.578125 186.035156 L 116.339844 187.402344 L 115.542969 186.683594 L 118.929688 182.949219 L 119.726562 183.671875 L 118.484375 185.039062 L 122.835938 188.988281 Z M 126.796875 184.023438 L 126.066406 185.136719 C 122.808594 183 124.339844 183.5625 118.957031 183.308594 L 119.789062 182.039062 L 123.089844 182.230469 L 121.558594 179.339844 L 122.214844 178.335938 C 124.660156 183.03125 123.527344 181.882812 126.796875 184.023438 "/>
<path style=" stroke:none;fill-rule:evenodd;fill:rgb(75.001144%,20%,25.000381%);fill-opacity:1;" d="M 44.992188 173.945312 C 45.78125 173.945312 46.421875 174.585938 46.421875 175.375 C 46.421875 176.164062 45.78125 176.804688 44.992188 176.804688 C 44.203125 176.804688 43.5625 176.164062 43.5625 175.375 C 43.5625 174.585938 44.203125 173.945312 44.992188 173.945312 "/>
<path style=" stroke:none;fill-rule:evenodd;fill:rgb(75.001144%,20%,25.000381%);fill-opacity:1;" d="M 128.003906 172.628906 C 128.796875 172.628906 129.433594 173.269531 129.433594 174.058594 C 129.433594 174.847656 128.796875 175.488281 128.003906 175.488281 C 127.214844 175.488281 126.574219 174.847656 126.574219 174.058594 C 126.574219 173.269531 127.214844 172.628906 128.003906 172.628906 "/>
</g>
</svg>
