<?xml version="1.0" encoding="UTF-8"?>
<svg xmlns="http://www.w3.org/2000/svg" xmlns:xlink="http://www.w3.org/1999/xlink" width="569.7638pt" height="226.7717pt" viewBox="0 0 569.7638 226.7717" version="1.1">
<g id="surface0">
<path style=" stroke:none;fill-rule:nonzero;fill:rgb(100%,0%,29.999237%);fill-opacity:1;" d="M 204.621094 173.644531 C 204.621094 169.796875 202.988281 171.304688 192.796875 171.304688 C 191.949219 171.304688 191.09375 171.472656 190.585938 171.558594 C 192.453125 170.15625 204.148438 149.652344 204.148438 148.304688 C 204.148438 144.40625 203.253906 145.917969 188.878906 145.917969 C 187.492188 145.917969 187.480469 149.03125 188.878906 149.03125 C 192.644531 149.03125 197.53125 149.742188 201.164062 148.78125 C 199.117188 150.46875 187.558594 170.488281 187.558594 171.898438 C 187.558594 176.050781 187.882812 174.5 203.769531 174.5 C 204.230469 174.5 204.621094 174.117188 204.621094 173.644531 Z M 219.796875 162.304688 L 211.5625 162.304688 C 212.496094 153.027344 219.609375 156.027344 219.796875 162.304688 Z M 223.292969 164.160156 L 223.292969 164.160156 C 223.292969 149.140625 208.015625 151.179688 208.015625 164.070312 C 208.015625 178.378906 223.441406 174.96875 222.613281 172.667969 C 221.613281 169.886719 219.707031 171.734375 217.0625 171.734375 C 213.222656 171.734375 211.734375 169.382812 211.5625 165.070312 C 213.136719 165.070312 223.292969 166.085938 223.292969 164.160156 Z M 243.925781 173.644531 C 243.925781 164.316406 246.070312 153.726562 238.683594 153.726562 C 236.464844 153.726562 234.628906 154.578125 232.800781 156.707031 C 231.660156 151.65625 229.515625 154.542969 229.515625 154.792969 L 229.515625 173.644531 C 229.515625 174.941406 232.925781 174.941406 232.925781 173.644531 C 232.925781 169.085938 230.859375 156.621094 237.871094 156.621094 C 244.027344 156.621094 237.960938 174.5 241.414062 174.5 C 242.152344 174.5 243.925781 174.824219 243.925781 173.644531 Z M 259.195312 173.304688 C 258.574219 170.050781 255.273438 173.554688 255.273438 170.234375 L 255.273438 156.703125 C 260.953125 156.703125 257.933594 153.941406 257.660156 153.941406 L 255.273438 153.941406 C 255.273438 149.632812 256.839844 147.234375 252.582031 148.699219 C 251.273438 149.152344 251.945312 152.859375 251.945312 153.941406 C 246.300781 153.941406 249.316406 156.703125 249.597656 156.703125 L 251.945312 156.703125 C 251.945312 167.074219 249.546875 177.003906 258.550781 174.414062 C 259.152344 174.242188 259.285156 173.8125 259.195312 173.304688 Z M 274.429688 155.21875 C 275.035156 152.699219 269.382812 153.589844 267.425781 156.882812 C 266.023438 151.527344 264.054688 154.597656 264.054688 154.792969 L 264.054688 173.644531 C 264.054688 174.941406 267.46875 174.9375 267.46875 173.644531 C 267.46875 166.570312 265.316406 155.574219 272.757812 157.738281 C 274.144531 158.140625 274.207031 156.105469 274.429688 155.21875 Z M 292.335938 173.644531 L 292.335938 154.792969 C 292.335938 153.484375 288.921875 153.492188 288.921875 154.792969 C 288.921875 159.765625 290.75 171.863281 283.761719 171.863281 C 277.703125 171.863281 283.707031 153.9375 280.261719 153.9375 C 276.210938 153.9375 277.753906 154.691406 277.753906 169.296875 C 277.753906 177.042969 285.636719 175.242188 289.050781 171.558594 C 290.363281 176.78125 292.335938 173.9375 292.335938 173.644531 Z M 323.351562 173.644531 C 323.351562 162.402344 325.382812 153.726562 318.695312 153.726562 C 316.484375 153.726562 314.648438 154.792969 312.898438 156.882812 C 311.894531 151.78125 305.3125 154.050781 303.085938 156.664062 C 301.941406 151.710938 299.800781 154.515625 299.800781 154.792969 L 299.800781 173.644531 C 299.800781 174.941406 303.214844 174.941406 303.214844 173.644531 C 303.214844 169.304688 301.214844 156.707031 307.863281 156.707031 C 312.960938 156.707031 307.445312 174.5 310.765625 174.5 C 314.8125 174.5 313.277344 173.308594 313.277344 161.875 C 313.277344 157.46875 319.9375 154.453125 319.9375 158.71875 C 319.9375 173.765625 318.390625 174.5 322.457031 174.5 C 322.925781 174.5 323.351562 174.117188 323.351562 173.644531 Z M 37.464844 174.582031 C 33.332031 174.582031 34.894531 173.582031 34.894531 160.683594 L 23.867188 160.683594 C 23.867188 173.539062 25.433594 174.582031 21.304688 174.582031 C 20.828125 174.582031 20.382812 174.191406 20.382812 173.707031 L 20.382812 146.265625 C 20.382812 144.941406 23.867188 144.9375 23.867188 146.265625 L 23.867188 157.546875 L 34.894531 157.546875 C 34.894531 146.636719 33.328125 145.394531 37.464844 145.394531 C 37.945312 145.394531 38.378906 145.746094 38.378906 146.265625 L 38.378906 173.707031 C 38.378906 174.191406 37.945312 174.582031 37.464844 174.582031 Z M 52.582031 156.152344 C 51.144531 156.152344 48.746094 156.984375 48.222656 162.167969 L 56.636719 162.167969 C 56.542969 159.246094 55.457031 156.152344 52.582031 156.152344 Z M 59.335938 164.957031 L 59.335938 164.957031 L 48.222656 164.957031 C 48.675781 175.976562 58.296875 169.46875 59.117188 171.621094 C 60.25 174.597656 57.128906 174.804688 53.890625 174.804688 C 41.238281 174.804688 41.992188 153.367188 52.496094 153.367188 C 61.25 153.367188 61.054688 164.957031 59.335938 164.957031 Z M 71.441406 174.320312 C 68.550781 175.351562 64.90625 174.707031 64.90625 171.101562 L 64.90625 144.609375 C 64.90625 143.285156 68.304688 143.285156 68.304688 144.609375 L 68.304688 170.222656 C 68.304688 174.105469 71.183594 169.4375 72.003906 173.40625 C 72.097656 173.886719 71.917969 174.144531 71.441406 174.320312 Z M 99.066406 174.582031 C 94.933594 174.582031 96.496094 173.914062 96.496094 158.464844 C 96.496094 154.113281 89.703125 157.1875 89.703125 161.6875 C 89.703125 173.46875 91.25 174.582031 87.125 174.582031 C 83.742188 174.582031 89.375 156.414062 84.160156 156.414062 C 75.488281 156.414062 81.914062 174.582031 78.5 174.582031 C 77.746094 174.582031 75.925781 174.910156 75.925781 173.707031 L 75.925781 154.457031 C 75.925781 154.21875 78.101562 151.25 79.285156 156.375 C 81.5625 153.695312 88.265625 151.382812 89.308594 156.585938 C 92.066406 153.285156 99.980469 150.789062 99.980469 157.855469 C 99.980469 159.84375 101.019531 174.582031 99.066406 174.582031 Z M 120.585938 174.582031 C 116.578125 174.582031 118.101562 173.621094 118.101562 159.597656 C 118.101562 153.425781 110.175781 157.019531 110.175781 161.730469 C 110.175781 173.234375 111.714844 174.582031 107.6875 174.582031 C 107.210938 174.582031 106.769531 174.191406 106.769531 173.707031 L 106.769531 144.609375 C 106.769531 143.285156 110.175781 143.285156 110.175781 144.609375 L 110.175781 156.324219 C 113.867188 152.210938 121.496094 152.144531 121.496094 158.8125 C 121.496094 160.71875 122.535156 174.582031 120.585938 174.582031 Z M 135.007812 156.28125 C 128.804688 156.28125 128.851562 171.925781 135.007812 171.925781 C 141.164062 171.925781 141.210938 156.28125 135.007812 156.28125 Z M 135.09375 174.804688 L 135.09375 174.804688 C 124.144531 174.804688 124.128906 153.367188 135.09375 153.367188 C 145.96875 153.367188 145.953125 174.804688 135.09375 174.804688 Z M 155.140625 174.320312 C 152.246094 175.355469 148.601562 174.710938 148.601562 171.101562 L 148.601562 144.609375 C 148.601562 143.285156 151.996094 143.285156 151.996094 144.609375 L 151.996094 170.222656 C 151.996094 174.105469 154.886719 169.4375 155.699219 173.40625 C 155.789062 173.886719 155.617188 174.144531 155.140625 174.320312 Z M 166.808594 174.496094 C 157.632812 177.121094 160.058594 167.136719 160.058594 156.375 C 154.28125 156.375 157.390625 153.582031 157.667969 153.582031 L 160.058594 153.582031 C 160.058594 150.28125 159.007812 148.804688 162.320312 147.660156 C 164.308594 146.976562 163.449219 152.394531 163.449219 153.582031 C 169.308594 153.582031 166.125 156.375 165.894531 156.375 L 163.449219 156.375 C 163.449219 168.636719 161.808594 172.652344 166.378906 171.753906 C 167.507812 171.53125 167.980469 174.15625 166.808594 174.496094 Z M 182.277344 174.582031 C 165.226562 174.582031 166.882812 176.71875 178.574219 157.683594 C 178.921875 157.109375 179.222656 156.628906 179.535156 156.324219 C 178.050781 156.660156 170.425781 157.179688 170.425781 155.503906 C 170.425781 152.199219 173.507812 153.582031 182.054688 153.582031 C 186.261719 153.582031 174.457031 170.355469 173.34375 171.753906 C 187.785156 170.300781 182.410156 174.582031 182.277344 174.582031 Z M 366.796875 173.644531 C 366.796875 162.425781 368.824219 153.726562 362.148438 153.726562 C 359.925781 153.726562 358.09375 154.792969 356.347656 156.882812 C 355.34375 151.773438 348.753906 154.066406 346.535156 156.664062 C 345.394531 151.703125 343.246094 154.519531 343.246094 154.792969 L 343.246094 173.644531 C 343.246094 174.933594 346.664062 174.945312 346.664062 173.644531 C 346.664062 169.308594 344.664062 156.707031 351.3125 156.707031 C 356.402344 156.707031 350.886719 174.5 354.214844 174.5 C 358.265625 174.5 356.730469 173.3125 356.730469 161.875 C 356.730469 157.464844 363.382812 154.453125 363.382812 158.71875 C 363.382812 173.8125 361.851562 174.5 365.890625 174.5 C 366.371094 174.5 366.796875 174.117188 366.796875 173.644531 Z M 410.390625 173.644531 C 410.390625 164.3125 412.539062 153.726562 405.140625 153.726562 C 402.929688 153.726562 401.09375 154.578125 399.257812 156.707031 C 398.085938 151.605469 395.976562 154.589844 395.976562 154.792969 L 395.976562 173.644531 C 395.976562 174.945312 399.390625 174.9375 399.390625 173.644531 C 399.390625 169.089844 397.324219 156.621094 404.332031 156.621094 C 410.488281 156.621094 404.425781 174.5 407.875 174.5 C 408.609375 174.5 410.390625 174.820312 410.390625 173.644531 Z M 429.238281 173.132812 C 428.609375 170.328125 427.5 171.558594 424.886719 171.558594 C 417.691406 171.558594 417.925781 153.617188 427.402344 157.261719 C 428.667969 157.75 430.855469 153.726562 424.628906 153.726562 C 412.46875 153.726562 413.667969 178.859375 428.554688 174.203125 C 429.113281 174.03125 429.324219 173.558594 429.238281 173.132812 Z M 448.558594 173.644531 C 448.558594 164.3125 450.703125 153.726562 443.308594 153.726562 C 441.128906 153.726562 439.300781 154.578125 437.464844 156.621094 C 437.464844 145.679688 438.988281 144.296875 435.03125 144.296875 C 434.558594 144.296875 434.136719 144.636719 434.136719 145.148438 L 434.136719 173.644531 C 434.136719 174.929688 437.464844 174.933594 437.464844 173.644531 C 437.464844 169.023438 435.378906 156.621094 442.5 156.621094 C 448.800781 156.621094 442.648438 174.5 446.128906 174.5 C 446.855469 174.5 448.558594 174.800781 448.558594 173.644531 Z M 466.335938 162.304688 L 458.105469 162.304688 C 459.046875 153.023438 466.148438 156.03125 466.335938 162.304688 Z M 469.832031 164.160156 L 469.832031 164.160156 C 469.832031 149.140625 454.566406 151.179688 454.566406 164.070312 C 454.566406 178.378906 469.992188 174.972656 469.15625 172.667969 C 468.148438 169.890625 466.257812 171.734375 463.609375 171.734375 C 459.769531 171.734375 458.277344 169.382812 458.105469 165.070312 C 459.683594 165.070312 469.832031 166.085938 469.832031 164.160156 Z M 490.480469 173.644531 C 490.480469 164.308594 492.625 153.726562 485.226562 153.726562 C 483.011719 153.726562 481.179688 154.578125 479.339844 156.707031 C 478.210938 151.644531 476.054688 154.554688 476.054688 154.792969 L 476.054688 173.644531 C 476.054688 174.941406 479.46875 174.941406 479.46875 173.644531 C 479.46875 169.078125 477.398438 156.621094 484.421875 156.621094 C 490.566406 156.621094 484.519531 174.5 487.957031 174.5 C 488.691406 174.5 490.480469 174.820312 490.480469 173.644531 Z M 379.375 147.074219 C 379.375 145.886719 375.953125 145.894531 375.953125 147.074219 C 375.953125 149.484375 376.15625 149.742188 378.578125 149.742188 C 379.761719 149.742188 379.375 147.808594 379.375 147.074219 Z M 386.6875 147.074219 C 386.6875 145.890625 383.269531 145.890625 383.269531 147.074219 C 383.269531 149.488281 383.46875 149.742188 385.886719 149.742188 C 387.070312 149.742188 386.6875 147.8125 386.6875 147.074219 Z M 387.785156 153.9375 C 383.726562 153.9375 385.269531 155.316406 385.269531 165.160156 C 385.269531 172.300781 377.507812 174.28125 377.507812 168.867188 C 377.507812 152.976562 379.679688 153.425781 372.136719 154.285156 C 371.050781 154.410156 371.175781 156.589844 372.089844 156.8125 L 374.097656 157.269531 C 374.097656 163.871094 371.984375 174.714844 379.171875 174.714844 C 382.921875 174.714844 384.332031 172.707031 385.398438 171.558594 C 386.707031 176.78125 388.679688 173.941406 388.679688 173.644531 L 388.679688 154.792969 C 388.679688 154.277344 388.253906 153.9375 387.785156 153.9375 "/>
<path style=" stroke:none;fill-rule:nonzero;fill:rgb(29.999237%,29.999237%,29.999237%);fill-opacity:1;" d="M 551.273438 204.003906 C 551.273438 200.832031 552.929688 191.765625 548.050781 191.765625 C 546.714844 191.765625 545.589844 192.292969 544.460938 193.550781 C 544.460938 190.699219 545.722656 185.980469 542.96875 185.980469 C 541.996094 185.980469 542 204.527344 542.96875 204.527344 C 547.367188 204.527344 541.21875 193.550781 547.554688 193.550781 C 552.222656 193.550781 546.195312 204.527344 550.722656 204.527344 C 551.011719 204.527344 551.273438 204.289062 551.273438 204.003906 Z M 539.222656 203.792969 L 539.222656 203.792969 C 538.378906 199.273438 536.816406 210.136719 536.816406 193.578125 C 539.34375 193.578125 539.347656 191.902344 536.816406 191.902344 C 536.816406 189.953125 537.574219 187.863281 535.164062 188.679688 C 534.382812 188.945312 534.769531 191.238281 534.769531 191.902344 C 532.265625 191.902344 532.265625 193.578125 534.769531 193.578125 C 534.769531 196.921875 532.816406 206.199219 538.832031 204.472656 C 539.199219 204.367188 539.277344 204.105469 539.222656 203.792969 Z M 531.367188 203.816406 L 531.367188 203.816406 C 530.105469 198.242188 529.140625 213.746094 529.140625 186.503906 C 529.140625 185.714844 527.097656 185.710938 527.097656 186.503906 C 527.097656 198.28125 525.09375 206.484375 531.027344 204.367188 C 531.316406 204.261719 531.417969 204.105469 531.367188 203.816406 Z M 520.261719 200.359375 L 520.261719 200.359375 C 520.261719 202.472656 515.546875 204.585938 515.546875 200.988281 C 515.546875 198.0625 518.183594 198.382812 520.261719 198.292969 L 520.261719 200.359375 Z M 522.621094 204.003906 L 522.621094 204.003906 C 521.496094 198.386719 524.824219 189.71875 514.941406 192.242188 C 514.234375 192.421875 514.574219 194.308594 515.390625 194.101562 C 518.15625 193.398438 520.261719 193.453125 520.261719 196.796875 C 517.390625 196.972656 513.398438 196.484375 513.398438 200.988281 C 513.398438 205.070312 518.410156 205.945312 520.339844 202.742188 C 520.730469 205.195312 522.75 204.800781 522.621094 204.003906 Z M 508.53125 197.058594 L 508.53125 197.058594 L 503.472656 197.058594 C 504.058594 191.292969 508.410156 193.15625 508.53125 197.058594 Z M 510.675781 198.1875 L 510.675781 198.1875 C 510.675781 188.933594 501.300781 190.191406 501.300781 198.132812 C 501.300781 206.183594 511.136719 205.679688 510.023438 202.742188 C 509.542969 201.480469 503.734375 205.300781 503.472656 198.734375 C 504.433594 198.734375 510.675781 199.300781 510.675781 198.1875 Z M 496.769531 204.003906 L 496.769531 204.003906 C 496.769531 202.21875 497.324219 186.976562 496.21875 186.976562 C 493.390625 186.976562 494.675781 191.4375 494.675781 194.285156 L 488.046875 194.285156 C 488.046875 191.4375 489.328125 186.976562 486.5 186.976562 C 485.609375 186.976562 485.527344 204.527344 486.5 204.527344 C 489.363281 204.527344 488.046875 199.832031 488.046875 196.167969 L 494.675781 196.167969 C 494.675781 199.832031 493.355469 204.527344 496.21875 204.527344 C 496.507812 204.527344 496.769531 204.289062 496.769531 204.003906 Z M 476.261719 203.816406 L 476.261719 203.816406 C 475.007812 198.175781 474.035156 213.875 474.035156 186.503906 C 474.035156 185.710938 471.988281 185.710938 471.988281 186.503906 C 471.988281 198.261719 469.988281 206.488281 475.917969 204.367188 C 476.207031 204.261719 476.3125 204.105469 476.261719 203.816406 Z M 465.15625 200.359375 L 465.15625 200.359375 C 465.15625 202.472656 460.441406 204.589844 460.441406 200.988281 C 460.441406 198.0625 463.078125 198.382812 465.15625 198.292969 L 465.15625 200.359375 Z M 467.511719 204.003906 L 467.511719 204.003906 L 467.355469 203.214844 C 466.269531 197.804688 469.671875 189.746094 459.839844 192.242188 C 459.125 192.421875 459.472656 194.308594 460.28125 194.101562 C 463.046875 193.398438 465.15625 193.453125 465.15625 196.796875 C 462.285156 196.972656 458.292969 196.480469 458.292969 200.988281 C 458.292969 205.070312 463.300781 205.941406 465.234375 202.742188 C 465.628906 205.191406 467.644531 204.804688 467.511719 204.003906 Z M 456.199219 203.792969 L 456.199219 203.792969 C 455.324219 199.324219 453.785156 210.066406 453.785156 193.578125 C 456.320312 193.578125 456.320312 191.902344 453.785156 191.902344 C 453.785156 189.953125 454.542969 187.859375 452.132812 188.679688 C 451.355469 188.941406 451.746094 191.242188 451.746094 191.902344 C 449.234375 191.902344 449.238281 193.578125 451.746094 193.578125 C 451.746094 196.917969 449.789062 206.207031 455.804688 204.472656 C 456.171875 204.367188 456.25 204.105469 456.199219 203.792969 Z M 446.558594 204.003906 L 446.558594 204.003906 C 446.558594 200.828125 448.214844 191.765625 443.335938 191.765625 C 441.972656 191.765625 440.847656 192.292969 439.71875 193.601562 C 439.335938 191.878906 437.707031 191.027344 437.707031 192.421875 C 437.707031 200.003906 436.324219 204.527344 439.25 204.527344 C 441.269531 204.527344 437.394531 193.550781 442.839844 193.550781 C 447.441406 193.550781 441.386719 204.527344 446.007812 204.527344 C 446.296875 204.527344 446.558594 204.289062 446.558594 204.003906 Z M 431.472656 197.058594 L 431.472656 197.058594 L 426.417969 197.058594 C 427 191.292969 431.351562 193.15625 431.472656 197.058594 Z M 433.621094 198.1875 L 433.621094 198.1875 C 433.621094 188.933594 424.242188 190.191406 424.242188 198.132812 C 424.242188 206.1875 434.082031 205.675781 432.964844 202.742188 C 432.480469 201.476562 426.679688 205.304688 426.417969 198.734375 C 427.378906 198.734375 433.621094 199.300781 433.621094 198.1875 Z M 420.289062 204.003906 L 420.289062 204.003906 C 420.289062 200.925781 422.027344 191.765625 417.433594 191.765625 C 416.074219 191.765625 414.945312 192.421875 413.871094 193.707031 C 413.257812 190.570312 409.210938 191.964844 407.847656 193.578125 C 407.445312 191.824219 405.832031 191.097656 405.832031 192.421875 C 405.832031 200.007812 404.445312 204.527344 407.375 204.527344 C 409.386719 204.527344 405.585938 193.601562 410.78125 193.601562 C 414.851562 193.601562 408.929688 204.527344 413.558594 204.527344 C 415.5625 204.527344 411.765625 193.601562 416.988281 193.601562 C 421.003906 193.601562 415.117188 204.527344 419.738281 204.527344 C 420.027344 204.527344 420.289062 204.289062 420.289062 204.003906 Z M 400.90625 204.003906 L 400.90625 204.003906 C 400.90625 200.828125 402.5625 191.765625 397.6875 191.765625 C 396.320312 191.765625 395.195312 192.292969 394.070312 193.601562 C 393.6875 191.890625 392.050781 191.019531 392.050781 192.421875 C 392.050781 200.007812 390.667969 204.527344 393.597656 204.527344 C 395.617188 204.527344 391.738281 193.550781 397.1875 193.550781 C 401.789062 193.550781 395.734375 204.527344 400.355469 204.527344 C 400.644531 204.527344 400.90625 204.289062 400.90625 204.003906 Z M 385.84375 198.214844 L 385.84375 198.214844 C 385.84375 204.527344 380.242188 204.527344 380.242188 198.214844 C 380.242188 191.957031 385.84375 191.953125 385.84375 198.214844 Z M 388.074219 198.214844 L 388.074219 198.214844 C 388.074219 189.707031 378.066406 189.746094 378.066406 198.214844 C 378.066406 206.683594 388.074219 206.722656 388.074219 198.214844 Z M 376.417969 192.6875 L 376.417969 192.6875 C 376.917969 190.671875 372.921875 192.363281 372.121094 193.707031 C 371.78125 192.386719 370.050781 190.445312 370.050781 192.421875 C 370.050781 200.007812 368.667969 204.527344 371.597656 204.527344 C 374.070312 204.527344 369.265625 192.449219 375.394531 194.230469 C 376.253906 194.480469 376.285156 193.230469 376.417969 192.6875 Z M 364.96875 204.003906 L 364.96875 204.003906 C 364.96875 196.882812 366.332031 191.902344 363.476562 191.902344 C 362.496094 191.902344 362.496094 204.527344 363.476562 204.527344 C 363.921875 204.527344 364.96875 204.710938 364.96875 204.003906 Z M 365.46875 187.367188 L 365.46875 187.367188 C 365.46875 183.039062 359.625 188.886719 363.949219 188.886719 C 364.789062 188.886719 365.46875 188.207031 365.46875 187.367188 Z M 359.207031 192.503906 L 359.207031 192.503906 C 359.34375 191.992188 356.40625 188.117188 354.464844 203.453125 C 354.316406 201.488281 352.699219 191.902344 351.222656 191.902344 C 347.945312 191.902344 350.316406 194.808594 353 204.054688 C 353.230469 204.839844 355.585938 204.824219 355.800781 204.054688 L 359.207031 192.503906 Z M 346.0625 204.003906 L 346.0625 204.003906 C 346.0625 200.828125 347.71875 191.765625 342.839844 191.765625 C 341.476562 191.765625 340.351562 192.292969 339.222656 193.601562 C 338.839844 191.894531 337.207031 191.011719 337.207031 192.421875 C 337.207031 200.011719 335.824219 204.527344 338.753906 204.527344 C 340.773438 204.527344 336.894531 193.550781 342.339844 193.550781 C 346.945312 193.550781 340.890625 204.527344 345.511719 204.527344 C 345.796875 204.527344 346.0625 204.289062 346.0625 204.003906 Z M 332.882812 204.003906 L 332.882812 204.003906 C 332.882812 201.191406 327.824219 202.507812 325.734375 202.507812 L 325.734375 196.199219 C 327.628906 196.199219 332.046875 197.363281 332.046875 194.808594 C 332.046875 193.757812 326.59375 194.285156 325.734375 194.285156 L 325.734375 188.9375 C 327.746094 188.9375 332.675781 190.203125 332.675781 187.5 C 332.675781 186.5625 323.613281 186.5625 323.613281 187.5 C 323.613281 208.355469 320.6875 204.527344 332.335938 204.527344 C 332.621094 204.527344 332.882812 204.289062 332.882812 204.003906 Z M 314.160156 192.6875 L 314.160156 192.6875 C 314.65625 190.671875 310.664062 192.363281 309.863281 193.707031 C 309.515625 192.367188 307.792969 190.460938 307.792969 192.421875 C 307.792969 200.003906 306.40625 204.527344 309.335938 204.527344 C 311.808594 204.527344 307.003906 192.445312 313.136719 194.230469 C 313.996094 194.480469 314.027344 193.230469 314.160156 192.6875 Z M 301.585938 198.214844 L 301.585938 198.214844 C 301.585938 204.53125 295.980469 204.527344 295.980469 198.214844 C 295.980469 191.957031 301.585938 191.953125 301.585938 198.214844 Z M 303.8125 198.214844 L 303.8125 198.214844 C 303.8125 189.707031 293.808594 189.746094 293.808594 198.214844 C 293.808594 206.683594 303.8125 206.722656 303.8125 198.214844 Z M 292.183594 186.976562 L 292.183594 186.976562 C 292.515625 185.765625 287.285156 184.929688 287.285156 188.835938 L 287.285156 191.902344 C 284.777344 191.902344 284.777344 193.578125 287.285156 193.578125 C 287.285156 199.527344 285.949219 204.527344 288.777344 204.527344 C 289.90625 204.527344 289.328125 194.851562 289.328125 193.578125 C 292.746094 193.578125 292.746094 191.902344 289.328125 191.902344 C 289.328125 184.441406 291.304688 189.9375 292.183594 186.976562 Z M 278.09375 192.6875 L 278.09375 192.6875 C 278.601562 190.675781 274.601562 192.359375 273.796875 193.707031 C 273.449219 192.371094 271.726562 190.460938 271.726562 192.421875 C 271.726562 200.003906 270.339844 204.527344 273.269531 204.527344 C 275.742188 204.527344 270.9375 192.449219 277.070312 194.230469 C 277.929688 194.480469 277.957031 193.230469 278.09375 192.6875 Z M 265.492188 197.058594 L 265.492188 197.058594 L 260.4375 197.058594 C 261.015625 191.292969 265.375 193.15625 265.492188 197.058594 Z M 267.640625 198.1875 L 267.640625 198.1875 C 267.640625 188.933594 258.265625 190.191406 258.265625 198.132812 C 258.265625 206.191406 268.105469 205.671875 266.988281 202.742188 C 266.503906 201.476562 260.695312 205.304688 260.4375 198.734375 C 261.398438 198.734375 267.640625 199.300781 267.640625 198.1875 Z M 256.25 203.792969 L 256.25 203.792969 C 255.378906 199.320312 253.835938 210.066406 253.835938 193.578125 C 256.367188 193.578125 256.367188 191.902344 253.835938 191.902344 C 253.835938 189.953125 254.59375 187.863281 252.1875 188.679688 C 251.410156 188.941406 251.796875 191.242188 251.796875 191.902344 C 249.285156 191.902344 249.289062 193.578125 251.796875 193.578125 C 251.796875 196.917969 249.839844 206.203125 255.855469 204.472656 C 256.222656 204.367188 256.300781 204.105469 256.25 203.792969 Z M 246.609375 204.003906 L 246.609375 204.003906 C 246.609375 200.828125 248.265625 191.765625 243.386719 191.765625 C 242.023438 191.765625 240.898438 192.292969 239.773438 193.601562 C 239.386719 191.886719 237.757812 191.023438 237.757812 192.421875 C 237.757812 200.007812 236.371094 204.527344 239.300781 204.527344 C 241.320312 204.527344 237.445312 193.550781 242.890625 193.550781 C 247.492188 193.550781 241.4375 204.527344 246.058594 204.527344 C 246.347656 204.527344 246.609375 204.289062 246.609375 204.003906 Z M 231.523438 197.058594 L 231.523438 197.058594 L 226.46875 197.058594 C 227.050781 191.292969 231.40625 193.15625 231.523438 197.058594 Z M 233.667969 198.1875 L 233.667969 198.1875 C 233.667969 188.933594 224.292969 190.191406 224.292969 198.132812 C 224.292969 206.183594 234.132812 205.679688 233.015625 202.742188 C 232.535156 201.476562 226.722656 205.304688 226.46875 198.734375 C 227.429688 198.734375 233.667969 199.300781 233.667969 198.1875 Z M 221.859375 203.320312 L 221.859375 203.320312 C 220.941406 201.378906 220.535156 202.640625 218.585938 202.640625 C 212.175781 202.640625 212.667969 185.425781 220.65625 189.308594 C 221.550781 189.742188 223.273438 186.84375 218.558594 186.84375 C 207.773438 186.84375 210.566406 209.515625 221.625 203.949219 C 221.835938 203.84375 221.992188 203.609375 221.859375 203.320312 Z M 201.484375 204.003906 L 201.484375 204.003906 C 201.484375 200.824219 203.140625 191.765625 198.261719 191.765625 C 196.925781 191.765625 195.800781 192.292969 194.671875 193.550781 C 194.671875 190.699219 195.933594 185.980469 193.179688 185.980469 C 192.210938 185.980469 192.210938 204.527344 193.179688 204.527344 C 197.578125 204.527344 191.429688 193.550781 197.761719 193.550781 C 202.4375 193.550781 196.40625 204.527344 200.933594 204.527344 C 201.222656 204.527344 201.484375 204.289062 201.484375 204.003906 Z M 189.355469 203.683594 L 189.355469 203.683594 C 188.667969 200.617188 183.671875 205.425781 183.671875 198.109375 C 183.671875 191.035156 188.175781 195.59375 189.144531 192.867188 C 189.683594 191.355469 181.445312 190.703125 181.445312 198.109375 C 181.445312 206.144531 189.644531 205.136719 189.355469 203.683594 Z M 179.535156 192.6875 L 179.535156 192.6875 C 180.042969 190.675781 176.042969 192.359375 175.238281 193.707031 C 174.890625 192.371094 173.167969 190.460938 173.167969 192.421875 C 173.167969 200.007812 171.785156 204.527344 174.714844 204.527344 C 177.1875 204.527344 172.378906 192.449219 178.511719 194.230469 C 179.371094 194.480469 179.402344 193.230469 179.535156 192.6875 Z M 166.28125 200.359375 L 166.28125 200.359375 C 166.28125 202.472656 161.566406 204.585938 161.566406 200.988281 C 161.566406 198.0625 164.203125 198.382812 166.28125 198.292969 L 166.28125 200.359375 Z M 168.640625 204.003906 L 168.640625 204.003906 C 167.5 198.390625 170.859375 189.722656 160.964844 192.242188 C 160.25 192.421875 160.597656 194.308594 161.40625 194.101562 C 164.171875 193.394531 166.28125 193.457031 166.28125 196.796875 C 163.410156 196.972656 159.417969 196.480469 159.417969 200.988281 C 159.417969 205.066406 164.429688 205.945312 166.359375 202.742188 C 166.753906 205.199219 168.773438 204.796875 168.640625 204.003906 Z M 154.546875 197.058594 L 154.546875 197.058594 L 149.492188 197.058594 C 150.070312 191.292969 154.433594 193.15625 154.546875 197.058594 Z M 156.695312 198.1875 L 156.695312 198.1875 C 156.695312 188.933594 147.320312 190.191406 147.320312 198.132812 C 147.320312 206.1875 157.15625 205.675781 156.042969 202.742188 C 155.5625 201.476562 149.75 205.304688 149.492188 198.734375 C 150.453125 198.734375 156.695312 199.300781 156.695312 198.1875 Z M 144.152344 201.121094 L 144.152344 201.121094 C 144.152344 197.296875 138.730469 197.21875 138.730469 195.015625 C 138.730469 191.964844 142.902344 195.0625 143.601562 193.027344 C 144.03125 191.789062 136.664062 190.78125 136.664062 195.171875 C 136.664062 198.683594 142.03125 198.710938 142.03125 201.09375 C 142.03125 204.6875 136.894531 201.179688 136.53125 202.429688 C 135.558594 205.789062 144.152344 205.554688 144.152344 201.121094 Z M 131.402344 197.058594 L 131.402344 197.058594 L 126.347656 197.058594 C 126.925781 191.292969 131.285156 193.15625 131.402344 197.058594 Z M 133.550781 198.1875 L 133.550781 198.1875 C 133.550781 188.933594 124.171875 190.191406 124.171875 198.132812 C 124.171875 206.191406 134.015625 205.671875 132.898438 202.742188 C 132.414062 201.476562 126.605469 205.304688 126.347656 198.734375 C 127.308594 198.734375 133.550781 199.300781 133.550781 198.1875 Z M 118.59375 191.558594 L 118.59375 191.558594 C 118.59375 194.886719 115.195312 194.625 112.699219 194.625 L 112.699219 188.886719 C 115.003906 188.886719 118.59375 188.546875 118.59375 191.558594 Z M 121.84375 203.898438 L 121.84375 203.898438 C 120.359375 199.730469 120.226562 196.230469 116.578125 195.621094 C 122.304688 194.988281 122.734375 186.976562 115.558594 186.976562 C 108.367188 186.976562 110.582031 184.546875 110.582031 204.003906 C 110.582031 204.800781 112.699219 204.800781 112.699219 204.003906 L 112.699219 196.507812 C 119.460938 196.507812 118.375 204.527344 119.90625 204.527344 C 120.425781 204.527344 122.183594 204.851562 121.84375 203.898438 Z M 99.109375 204.003906 L 99.109375 204.003906 C 99.109375 200.828125 100.765625 191.765625 95.886719 191.765625 C 94.523438 191.765625 93.398438 192.292969 92.273438 193.601562 C 91.886719 191.890625 90.253906 191.015625 90.253906 192.421875 C 90.253906 200.007812 88.871094 204.527344 91.800781 204.527344 C 93.820312 204.527344 89.941406 193.550781 95.390625 193.550781 C 99.996094 193.550781 93.9375 204.527344 98.558594 204.527344 C 98.847656 204.527344 99.109375 204.289062 99.109375 204.003906 Z M 83.367188 200.359375 L 83.367188 200.359375 C 83.367188 202.472656 78.652344 204.585938 78.652344 200.988281 C 78.652344 198.0625 81.292969 198.382812 83.367188 198.292969 L 83.367188 200.359375 Z M 85.722656 204.003906 L 85.722656 204.003906 C 84.59375 198.386719 87.9375 189.722656 78.050781 192.242188 C 77.335938 192.421875 77.683594 194.308594 78.496094 194.101562 C 81.261719 193.394531 83.367188 193.457031 83.367188 196.796875 C 80.496094 196.972656 76.503906 196.480469 76.503906 200.988281 C 76.503906 205.066406 81.515625 205.945312 83.445312 202.742188 C 83.839844 205.203125 85.859375 204.796875 85.722656 204.003906 Z M 72.734375 204.003906 L 72.734375 204.003906 C 72.734375 200.925781 74.46875 191.765625 69.878906 191.765625 C 68.515625 191.765625 67.390625 192.421875 66.316406 193.707031 C 65.699219 190.570312 61.65625 191.964844 60.289062 193.578125 C 59.890625 191.816406 58.273438 191.101562 58.273438 192.421875 C 58.273438 200.007812 56.890625 204.527344 59.820312 204.527344 C 61.828125 204.527344 58.03125 193.601562 63.226562 193.601562 C 67.296875 193.601562 61.375 204.527344 66 204.527344 C 68.003906 204.527344 64.210938 193.601562 69.433594 193.601562 C 73.449219 193.601562 67.5625 204.527344 72.183594 204.527344 C 72.46875 204.527344 72.734375 204.289062 72.734375 204.003906 Z M 55.367188 192.6875 L 55.367188 192.6875 C 55.867188 190.671875 51.871094 192.363281 51.070312 193.707031 C 50.722656 192.363281 49.003906 190.464844 49.003906 192.421875 C 49.003906 200.003906 47.617188 204.527344 50.546875 204.527344 C 53.019531 204.527344 48.210938 192.445312 54.347656 194.230469 C 55.203125 194.480469 55.234375 193.230469 55.367188 192.6875 Z M 42.769531 197.058594 L 42.769531 197.058594 L 37.710938 197.058594 C 38.296875 191.292969 42.652344 193.160156 42.769531 197.058594 Z M 44.917969 198.1875 L 44.917969 198.1875 C 44.917969 188.933594 35.539062 190.191406 35.539062 198.132812 C 35.539062 206.179688 45.375 205.683594 44.261719 202.742188 C 43.78125 201.480469 37.972656 205.300781 37.710938 198.734375 C 38.671875 198.734375 44.917969 199.300781 44.917969 198.1875 Z M 31.503906 203.136719 L 31.503906 203.136719 C 31.503906 193.722656 33.6875 194.464844 26.636719 194.464844 C 25.84375 194.464844 25.84375 196.507812 26.636719 196.507812 L 29.4375 196.507812 L 29.4375 202.402344 C 19.191406 205.542969 20.097656 184.445312 30.222656 189.671875 C 31.046875 190.097656 32.746094 186.84375 27.183594 186.84375 C 16.179688 186.84375 17.953125 209.003906 30.796875 204.054688 C 31.269531 203.867188 31.503906 203.660156 31.503906 203.136719 "/>
</g>
</svg>
